<svg xmlns="http://www.w3.org/2000/svg" width="642" height="621" fill="none" xmlns:v="https://vecta.io/nano"><path d="M315.866 291.552l64.047 63.723c8.274 8.233 21.69 8.233 29.963 0l91.58-91.116c8.274-8.233 8.274-21.58 0-29.812l-64.047-63.723c-8.274-8.233-21.69-8.233-29.963 0l-91.58 91.116c-8.274 8.233-8.274 21.58 0 29.812z" fill="#88d37f"/><circle fill="#e7889d" cx="304.66" cy="242.45" r="81"/><path d="M138.652 367.45h94.016c12.145 0 21.992-9.823 21.992-21.94V211.39c0-12.117-9.847-21.94-21.992-21.94h-94.016c-12.145 0-21.992 9.823-21.992 21.94V345.51c0 12.117 9.845 21.94 21.992 21.94z" fill="#f6ee86"/><path d="M556.487 160.91c-1.348-1.485-2.832-2.7-4.45-3.78-1.08-.675-2.157-1.485-3.236-2.295-5.528-3.915-11.46-6.885-17.798-9.315-2.157-.8-4.315-1.215-6.607-1.485-1.348-.135-2.427.135-3.506.945-1.348.945-2.292 2.16-3.236 3.5-4.854 6.885-8.9 14.176-12.27 21.736-.27.54-.405.945-.674 1.485s-.27.945.405 1.215c2.292 1.485 4.584 2.97 7.28 3.645.81.135 1.483.54 1.888 1.215.81 1.08.54 2.835-.405 3.78-.944.8-2.157.8-3.37-.135-.405-.27-.674-.54-1.214-.675-1.888-.675-3.64-1.62-5.393-2.7-1.348-.945-1.483-.8-1.888.54-.135.54-.405.945-.54 1.35-.27.54-.135.8.405 1.08.81.405 1.753.8 2.697.945 1.214.135 2.023 1.215 2.023 2.295 0 1.215-.81 2.16-2.023 2.43-.81.135-1.483.135-2.292-.135-.674-.27-1.348-.54-2.023-.945-1.348-.675-1.214-.8-2.023.675-1.348 2.295-2.562 4.725-3.775 7.155l-8.225 17.686c-2.832 5.805-5.528 11.6-7.82 17.55a659.77 659.77 0 0 0-8.09 22.951c-2.292 6.75-4.854 13.635-7.416 20.25-1.753 4.455-3.236 9.045-4.45 13.635s-2.427 9.18-4.045 13.635l-5.393 15.256c-.405 1.08-.405 1.08.674 1.485 3.9 1.9 7.955 3.24 12.27 4.185l3.506.8c1.214.405 1.888 1.215 1.888 2.43 0 1.08-.54 1.755-1.483 2.295-1.08.54-2.157 1.215-3.506.27-.135 0-.135-.135-.27-.135-.405-.54-1.08-.8-1.753-.945-4.045-.945-7.955-2.295-11.73-3.915-1.618-.675-1.753-.675-2.157 1.08-.135.405 0 .675.27.945 2.157 1.08 4.315 2.295 6.877 2.7.81.135 1.483.27 2.292.54 1.08.405 1.753 1.35 1.618 2.43s-.944 1.9-2.023 2.16a1.87 1.87 0 0 1-1.214 0c-1.08-.27-2.023-.405-3.1-.675-1.888-.405-3.64-1.35-5.26-2.16-1.214-.54-1.214-.54-1.618.54-1.348 3.5-2.562 7.155-3.64 10.8a148.18 148.18 0 0 0-2.427 10.53c-.27 1.485-.405 3.105.135 4.6.54 1.755 1.348 2.43 3.1 2.565 3.506.27 6.877-.27 9.708-2.43 5.528-4.185 11.057-8.235 15.776-13.23 1.618-1.62 3.1-3.375 4.72-4.995 6.337-6.615 13.08-12.825 19.55-19.306.405-.405.944-.675 1.214-1.35l-3.506-1.62c-1.483-.675-2.832-1.485-4.045-2.565-1.08-.945-1.348-2.43-.674-3.375.81-1.08 2.292-1.35 3.506-.54.135.135.27.27.405.27 2.292 1.62 4.854 2.7 7.416 3.915.54.27 1.08.27 1.618-.27 1.08-1.08 2.157-2.025 3.236-3.105.54-.54 1.08-.945 1.618-1.755-2.832-.8-5.26-2.295-7.82-3.375-.27-.135-.54-.135-.944-.27-1.348-.405-2.157-1.485-1.888-2.835.27-1.215 1.483-2.16 2.832-2.025.81.135 1.618.405 2.292.8 1.214.675 2.562 1.215 3.775 1.9 1.618.8 3.236 1.215 4.99 1.485.54.135.81 0 1.214-.405.674-.8 1.348-1.485 2.023-2.295-.81-.675-1.753-.675-2.562-1.08-4.72-2.025-9.304-4.455-13.888-6.75-.674-.27-1.214-.54-1.888-.675-1.214-.27-1.753-1.215-2.023-2.295s0-2.025.944-2.7 2.023-.54 2.966 0c.54.405 1.214.675 1.753 1.08l11.866 5.94c1.753.8 3.506 1.35 5.26 1.9.944.27 1.483 0 2.023-.675 8.225-9.585 15.91-19.71 24-29.43 3.9-4.725 7.416-9.72 11.19-14.58 4.315-5.535 8.9-10.935 12.944-16.876l4.45-6.615c-1.08-.675-2.157-1.215-3.236-1.755-.674-.405-1.348-.675-2.023-1.215-1.08-.8-1.214-2.16-.54-3.24s1.888-1.485 3.1-.945c.27.135.405.27.674.405 1.348.675 2.832 1.35 4.18 2.16.54.27.944.135 1.214-.27.81-1.215 1.753-2.43 2.427-3.78-.27-.405-.674-.54-1.08-.675-2.023-.945-3.9-2.295-5.798-3.375-1.214-.8-1.618-2.16-.944-3.24.674-1.215 2.023-1.485 3.37-.945.405.27.944.405 1.348.675 1.618.945 3.236 2.025 4.99 2.835.674.27.944.27 1.348-.405.405-.8.81-1.485 1.214-2.16-.135-.405-.405-.405-.674-.54-4.045-2.025-7.955-4.185-12.135-6.075-1.214-.54-2.292-1.215-3.37-1.9s-1.348-2.025-.81-3.105 1.888-1.62 3.1-1.08c.405.135.674.27.944.54.81.675 1.753 1.08 2.562 1.485l7.146 3.5c1.618.945 3.37 1.755 5.124 2.565.944.405.944.405 1.348-.405.81-1.35 1.348-2.7 1.888-4.05 1.753-4.455 1.348-8.775-.674-12.96-1.348-2.97-3.1-5.94-4.99-8.64-1.08-1.62-2.832-2.16-4.045-3.5h-.27c-1.483-.54-2.023-1.08-2.023-2.565 0-.54-.135-.8-.54-1.215-.674-.8-1.348-1.485-1.888-2.295-1.214-1.62-2.562-2.97-4.045-4.185-2.292-1.62-4.18-3.5-5.933-5.535zm-33.574 13.77c-.135-.27-.27-.54-.54-.8-1.348-1.35-1.348-2.835.135-4.185 1.753-1.62 3.64-3.105 5.798-4.185 1.08-.54 2.157-.945 3.37-1.215 1.618-.405 3.236-.27 4.72.54 1.888.8 2.966 2.295 3.1 4.32.27 2.295-.27 4.6-1.214 6.615-.944 1.9-2.832 2.295-4.315.8-1.753-1.62-3.775-1.9-5.933-1.35-.674.135-1.214.405-1.753.54-1.618.675-2.562.27-3.37-1.08zm6.202 79.113c-1.214 1.9-2.427 3.78-3.9 5.4-1.348 1.485-2.697 2.97-3.775 4.6-1.214 1.9-3.1 2.97-4.99 4.05-.81.54-1.888.54-2.832.405-2.157-.27-4.18-1.08-6.068-2.025-2.427-1.08-4.72-2.295-7.146-3.375l-10.113-5.4c-.944-.54-1.618-1.215-1.753-2.43 0-.405-.27-.8-.27-1.215-.27-1.215.27-2.295 1.348-2.835s2.562-.27 3.1.8c.54.945 1.348 1.215 2.292 1.35 7.416 1.215 14.697.8 21.978-1.08 2.023-.54 3.9-1.485 5.663-2.7.674-.405 1.348-.945 2.023-1.35 2.023-1.08 4.315-.135 4.72 2.295 0 .135 0 .405.135.54.54.945.27 2.025-.405 2.97zm18.877-36.45c-2.427 4.455-5.933 8.1-10.382 10.665-1.888 1.08-3.9 1.215-5.933.54-2.292-.675-4.315-1.755-5.933-3.5l-1.348-1.35c-.944-.945-.944-.945-1.888-.27-1.348.8-2.697 1.35-4.315 1.62-2.697.405-4.854-.405-6.607-2.43s-2.832-4.455-3.1-7.155c-.27-2.97.27-5.94 1.348-8.775 1.888-5.265 4.584-10.125 8.36-14.31.81-.945 1.888-1.9 2.966-2.7 1.753-1.215 3.64-1.485 5.528-.27.27.27.674.405 1.08.54 1.753.675 2.966 1.755 3.9 3.24 1.348 2.295 2.292 4.86 2.023 7.56v1.08c1.08-.8 2.023-1.62 2.832-2.295.944-.8 1.888-1.485 2.966-2.16 1.348-.675 2.697-1.215 4.18-1.215 2.023 0 3.64.8 4.584 2.7.944 1.755 1.753 3.645 1.888 5.67.405 4.6 0 8.9-2.157 12.825zm12.405-37.396c.27.8.27 1.755.27 2.565 0 1.215 0 2.565.27 3.78.27 1.35-.81 3.24-2.023 3.915s-2.562.135-3.236-1.08c-.54-.8-.81-1.755-1.08-2.7-.944-2.565-.944-2.565-3.64-2.295-.54.135-1.214.135-1.753.135-1.08-.135-1.888-.675-2.292-1.755-.405-.945-.135-1.9.54-2.7 2.023-2.16 4.584-3.645 7.55-4.185.81-.135 1.618 0 2.427.405 1.483.945 2.427 2.16 2.966 3.915z" fill="#f15a24"/><path d="M615.376 157.144c-1.342-.403-2.82-.67-4.295-.806-.805-.134-1.476-.134-2.282-.403-1.074-.403-1.745-1.343-1.745-2.417s.67-2.014 1.61-2.417c.537-.27 1.074-.27 1.745-.403l6.04-1.477c.67-.134 1.208-.403 1.342-1.074.134-.403.403-.67.67-.94.268-.403.537-.806.537-1.343-.403-.27-.805 0-1.074 0-.805 0-1.476-.134-1.88-.806s-.94-.67-1.61-.537l-8.456 1.61c-.94.134-1.745.27-2.684.134-1.074-.134-1.745-.67-2.147-1.61s-.134-1.88.537-2.685c1.074-.94 2.013-1.88 2.416-3.357.268-1.074.403-1.208-.67-1.343-.67-.134-1.208-.134-1.88.27-.537.403-1.342.67-2.013.27-.805-.403-1.342-.134-2.013.134-3.624 1.477-7.114 3.357-10.47 5.505-2.013 1.343-4.027 2.685-6.308 3.894-.67.403-1.342.67-2.147.94-2.282.537-4.16-.94-3.892-3.357 0-.537.134-.94.268-1.477 1.476-4.7 3.624-8.996 5.906-13.292.67-1.343 1.88-2.282 3.22-3.088 1.342-.67 2.82-1.208 4.295-1.61 2.416-.67 4.698-1.343 7.114-1.88 5.77-1.343 10.603-4.296 15.167-7.653.403-.27.67-.537.403-1.074-.403-.94-.134-1.88.67-2.685.537-.537.67-1.208.94-2.014-1.476.403-2.684.806-3.758 1.477l-5.37 3.088c-.268.134-.403.27-.67.403-1.074.403-2.147.134-2.82-.67s-.67-2.014-.134-2.954c.268-.27.537-.67.805-.94 3.758-4.43 7.382-8.996 11.408-13.158.268-.27.403-.537.403-.94-.268-1.208.134-2.282.805-3.357.134-.27.403-.537.268-.806-1.61-.403-2.147-.403-3.355.403-2.684 1.88-5.234 4.028-7.785 6.176-.403.27-.67.67-1.208.94-.94.67-2.147.67-2.953 0-.94-.67-1.208-1.88-.67-2.954.268-.537.537-1.074.94-1.61l8.053-13.426c.268-.403.403-.806.134-1.208-.403-.537-.403-1.208-.403-1.88 0-.403 0-.94-.403-1.343-1.208.537-2.147 1.477-2.82 2.55-2.953 4.43-5.906 8.996-9.127 13.292l-2.82 4.028c-.805 1.208-2.147 1.477-3.22 1.074-1.074-.537-1.61-1.745-1.342-3.088.134-.537.268-1.074.537-1.745 1.476-5.907 2.82-11.815 4.027-17.722.805-3.49 1.208-7.116 1.208-10.607 0-.403.134-.94-.134-1.343-.403-.806-.67-1.61-.805-2.417-.134-1.074-.805-1.61-1.745-1.88-1.208-.27-2.282-.537-3.5-.67-.805-.134-1.61.134-2.282.67-1.61 1.074-2.416 2.685-2.82 4.43-.67 2.954-1.074 5.907-1.61 8.996-.403 2.685-.805 5.37-1.476 8.056-.403 1.477-1.342 2.282-2.55 2.148-1.208 0-2.147-.806-2.416-2.282l-.403-2.55c-.805-5.505-1.61-11.144-2.147-16.783-.134-1.477-.94-2.417-2.013-3.222-1.074-.67-2.013-.27-2.416.806-.94 2.148-1.208 4.296-1.208 6.58.134 2.148.268 4.296.134 6.58 0 .537-.134 1.208-.134 1.745-.268 1.074-.94 1.745-2.013 2.014s-2.013-.27-2.55-1.208c-.403-.537-.67-1.208-.94-1.88l-3.892-8.727c-.134-.27-.268-.67-.537-.94-.537-.806-1.61-.806-2.013.134-.268.403-.403.94-.537 1.343-.268 1.745-.537 3.49-.134 5.236.67 2.954 1.074 6.042 2.013 8.996.403 1.208.268 2.282 0 3.357-.537 1.61-2.416 2.014-3.758 1.074-.537-.403-1.074-.94-1.342-1.477-.805-1.477-2.147-2.014-3.624-2.417-.537-.134-1.074-.27-1.61-.537-.805-.27-1.074 0-.94.806.134.403.268.806.67 1.208.268.403.805.806.805 1.208.268 1.343 1.342 1.88 2.147 2.55l1.88 1.477c1.342 1.208 2.684 2.417 4.027 3.76 1.88 1.88 3.22 4.162 4.563 6.445.537 1.074.403 2.282-.403 2.954-.805.806-1.88.806-2.953.27-.268-.134-.403-.27-.67-.403-1.476-.67-2.953-1.074-4.698-1.343.403 1.61 1.074 2.82 2.013 3.894 1.61 2.014 3.355 3.894 5.234 5.773 3.892 4.028 6.577 8.727 7.92 14.232.537 2.148 1.074 4.43 1.476 6.713.805 4.833.403 9.667-.805 14.5-.805 3.088-2.416 5.907-4.027 8.727-.537 1.074-1.208 2.014-1.88 3.088-.268.403-.268.806.134 1.208.805.67 1.476 1.61 2.282 2.282.134.134.403.403.67.27.94-.27 1.88-.403 2.684-1.208 2.82-2.417 5.906-4.43 9.26-6.042 2.147-1.074 4.295-1.074 6.308.134 2.953 1.745 5.77 3.625 7.65 6.58 1.342 2.014 2.953 4.028 4.295 6.176 1.074 1.745 2.55 2.55 4.43 2.685 2.55.27 4.16-.403 4.295-3.222 0-1.074.268-2.148.537-3.222.403-1.88 2.282-2.685 4.027-1.61.94.537 1.745 1.343 2.55 2.014.403.27.67.67 1.208.67.94-.134 1.745.403 2.55.94 1.88 1.343 3.758 1.074 5.637.134 1.208-.67 1.342-1.61.67-2.82-.268-.537-.67-1.074-.94-1.745-.268-.537-.67-.806-1.208-.94z" fill="#009245"/><path d="M621.647 152.494c4.175-1.48 8.35-3.098 12.256-4.983 1.886-.943 3.77-1.886 5.387-3.232.943-.673 1.75-1.48 2.3-2.56 1.077-2.155 0-4.3-2.3-4.983a11.22 11.22 0 0 0-2.963-.404c-2.694-.135-5.253.135-7.946.404-4.175.54-8.35 1.347-12.526 2.155-.404.135-.808.135-1.212.135.404-.54.943-.808 1.482-1.077 2.56-1.347 5.253-2.694 7.812-4.175 3.367-2.02 6.734-4.04 9.832-6.6.943-.808 1.886-1.616 2.56-2.56s.943-2.155.27-3.232-1.75-1.347-2.963-1.212c-.54.135-1.212.27-1.75.404-1.616.404-3.232.943-4.85 1.48l-24.378 8.35c-7.004 2.424-13.738 5.522-19.933 9.832-.404.27-.673.54-1.347.54l.404-1.212c.808-1.886 1.886-3.636 2.56-5.522.943-2.56 2.828-3.906 5.387-4.444.27-.135.673-.135.943-.27l8.35-2.3c3.367-.943 6.465-2.3 9.428-4.175 3.098-1.886 5.926-4.04 8.754-6.195 2.3-1.886 4.445-3.906 6.33-6.195 1.077-1.347 2.02-2.828 2.694-4.58.808-2.424-.135-4.3-2.56-4.983-1.077-.27-2.3-.27-3.367-.135-1.75.27-3.502.808-5.118 1.616-.404.135-.808.54-1.482.54.673-1.077 1.616-1.886 2.424-2.694 3.367-3.636 6.87-7.003 10.1-10.774 1.482-1.75 2.963-3.636 3.77-5.8.943-2.3-.135-3.906-2.424-4.175-2.424-.404-4.58.135-6.734 1.077-3.367 1.616-6.6 3.502-9.697 5.522-.404.27-.808.54-1.212.673-.135-.404.135-.54.27-.673 2.155-3.77 4.3-7.407 5.926-11.448 1.75-4.175 2.828-8.485 3.367-13.064.135-.943.135-1.886-.135-2.694-.54-1.886-2.424-2.56-4.04-1.616-.404.27-.673.54-1.077.808-.943.808-1.75 1.75-2.424 2.694-4.175 5.118-8.216 10.505-12.256 15.757-.135.27-.404.54-.54.808-.54 1.48-1.482 2.694-2.424 3.906-.404.673-.673 1.347-1.482 2.02.54-2.155.943-4.3 1.347-6.33 1.886-8.35 2.02-16.835.673-25.32a24.14 24.14 0 0 0-2.56-7.81c-.54-1.077-1.212-2.155-2.155-2.963-1.75-1.48-3.906-1.616-5.8-.135-.404.404-.808.673-1.212 1.077-1.077 1.212-2.02 2.694-2.828 4.175-2.3 4.3-3.906 8.9-4.983 13.737-.27.943-.673 1.75-1.077 2.694-.404-.54-.27-1.077-.404-1.616-.673-5.926-1.347-11.717-2.3-17.643-.404-2.155-.808-4.175-1.347-6.33-.27-.943-.54-1.886-1.212-2.694-1.212-1.48-3.232-1.48-4.445 0-.27.404-.54.673-.673 1.077-.404.808-.673 1.616-.943 2.424a66.95 66.95 0 0 0-4.445 21.683c0 .404.135.943-.135 1.347h-.135l-5.8-11.582c-.943-1.616-1.75-3.232-2.963-4.714-.54-.808-1.212-1.48-2.155-1.886-1.616-.673-3.232-.135-4.04 1.347-.27.54-.404 1.212-.54 1.75-.54 2.694-.404 5.387-.135 8.08.673 5.118 1.482 10.236 2.56 15.22.135.404.27.808.135 1.347-1.077-1.077-2.155-2.155-3.232-3.098-.943-.943-2.02-1.75-3.232-2.3-2.694-1.212-5.253-.404-6.6 2.155-.27.404-.404.943-.54 1.347-.673 2.02-.673 3.906-.135 5.926 1.077 4.04 2.963 7.407 6.195 9.966l5.253 4.04c1.347 1.077 2.828 2.3 3.906 3.77-.673-.135-1.347-.27-2.02-.27-2.424-.27-3.77 1.212-3.367 3.502.54 3.367 1.75 6.465 3.906 9.158 1.482 1.886 3.232 3.636 4.983 5.387 3.502 3.636 5.926 7.677 7.004 12.66.404 1.616.673 3.232 1.077 4.848 1.077 4.3.54 8.754-.135 13.064-.135.808-.404 1.48-.673 2.155-1.077 2.694-2.694 5.252-4.175 7.8-.943 1.48-.808 1.48-2.3.54-2.02-1.347-3.906-2.694-5.926-3.906a86.26 86.26 0 0 0-13.334-6.465c-2.963-1.077-5.926-1.75-9.024-2.02-2.02-.135-3.906.404-5.657 1.48-2.155 1.48-3.77 3.367-5.253 5.522-4.85 7.003-8.9 14.4-12.4 22.087-.673 1.616-.673 1.616-2.424.943-1.482-.54-2.828-.135-3.367 1.077s0 2.56 1.347 3.367c.54.27.943.54 1.482.808.27.135.54.404.404.808-.404.943-.54 2.155-1.347 3.098-.54-.404-1.077-.808-1.75-1.077-1.347-.673-2.828-.27-3.502.943s-.135 2.56 1.077 3.367c.54.27.943.673 1.482.943.404.27.404.54.135.943-.404.673-.808 1.212-1.077 1.886-2.3 4.3-4.445 8.62-6.33 12.93-2.694 6.195-5.8 12.256-8.62 18.316-.404.943-.943 2.02-1.347 2.963-2.155 4.983-4.175 9.966-5.926 15.084l-5.253 15.22c-1.886 5.522-3.77 10.9-5.926 16.296-2.963 7.138-5.253 14.4-7.273 21.818-2.155 8.08-4.983 15.757-7.812 23.57-.135.404-.135.808-.673.943-1.616-1.347-3.367-2.424-4.85-3.906-.404-.404-.808-.54-1.212-.808-1.347-.54-2.828-.135-3.367 1.212s-.135 2.828 1.212 3.502c.404.27.808.404 1.212.673 1.616 1.212 3.232 2.56 4.85 3.77.404.404.943.673.54 1.347s-.27 1.616-1.482 1.75c-2.155.27-2.828 2.424-1.482 4.04.404.404.54.808.27 1.347-.135.27-.27.673-.404 1.077-1.886 5.252-3.77 10.505-4.983 16.027-.673 2.828-1.347 5.522-1.482 8.485-.135 2.155.135 4.3 1.077 6.195 1.077 2.3 2.828 3.77 5.387 4.175 5.118.808 9.967 0 14.276-3.098 5.657-4.175 11.448-8.485 16.297-13.603l4.85-5.118c4.58-4.983 9.697-9.428 14.546-14.276l7.542-7.407c.54-.54.943-.673 1.75-.54 1.75.404 3.636.27 5.387.673 1.482.27 2.694-.673 2.963-2.02.135-1.347-.673-2.424-2.155-2.694a45.18 45.18 0 0 0-2.424-.404l5.8-5.926c.404-.404.808-.673 1.077-1.077 1.077-1.75 2.694-3.232 3.906-4.848.27-.27.404-.404.808-.404 1.482.27 3.098.27 4.58.673 1.347.404 2.56.135 3.636-.404.943-.404 1.482-1.212 1.347-2.3s-.673-1.75-1.75-2.155c-.54-.135-1.077-.135-1.616-.135-.943 0-1.75 0-2.694-.27.27-.404.404-.673.673-.808 7.542-8.9 14.546-18.182 21.953-26.936 4.04-4.714 7.408-9.697 11.18-14.68 3.232-4.175 6.6-8.08 9.697-12.4 2.694-3.636 5.118-7.542 7.812-11.178.808-1.077.808-1.077 1.886-.54.808.404 1.75.808 2.694.943 1.347.135 2.56-.673 2.828-1.75.27-1.347-.404-2.424-1.75-2.963-.404-.135-.943-.404-1.347-.54-.54-.27-.54-.54-.27-.943.54-.808 1.077-1.616 1.616-2.3 1.077-1.75 1.077-1.75 2.963-.808 1.077.54 2.155.404 2.828-.404 1.077-1.077.808-3.098-.673-4.04-.404-.27-.943-.54-1.616-.808.404-.808.808-1.48 1.212-2.155.27-.54.673-.54 1.077-.27.943.404 1.886.808 2.963 1.077 1.212.404 2.424.673 3.636.404 1.482-.135 2.424-1.212 2.424-2.56s-1.077-2.3-2.56-2.3c-1.212 0-2.3-.404-3.502-.808-.943-.404-.943-.404-.54-1.347.943-1.886 2.02-3.906 2.56-6.06.808-2.828 1.212-5.657.673-8.62-.808-4.714-2.963-8.754-5.253-12.794-.808-1.48-2.02-2.828-2.963-4.3-.135-.27-.404-.54-.404-.808-.135-1.077-.808-1.75-1.616-2.3-2.155-1.347-3.906-3.098-5.522-5.118-1.347-1.75-2.828-3.367-4.445-4.714-.54-.404-.54-.673 0-1.212 1.616-1.48 3.367-2.694 5.253-3.906 1.347-.943 2.694-1.616 4.175-2.3.54-.27 1.077-.404 1.75 0 2.155 1.212 4.175 2.424 5.657 4.444s2.828 4.175 4.3 6.195c.27.404.27.673.404 1.077.135.808.54 1.48 1.347 1.75s1.482.943 2.155 1.48c1.347 1.212 2.828 2.3 4.58 2.963 2.3.943 4.58.943 6.87-.27 2.02-1.212 3.367-2.963 3.906-5.387.135-.404 0-.943.404-1.347l.808.404c3.367 2.424 7.004 3.636 11.044 4.04 2.963.404 5.8-.54 8.216-2.3 2.155-1.616 2.828-3.636 2.3-6.195-.404-1.886-1.347-3.502-2.694-4.983s-3.098-2.56-4.983-3.367c-.404-.27-1.077-.404-1.347-.808-.27-.135.27-.135.673-.404zM566.56 170.27c.673.808 1.347 1.48 1.886 2.3.27.404.404.673.54 1.212 0 1.48.54 2.02 2.02 2.56h.27c1.212 1.347 2.963 1.886 4.04 3.502 1.886 2.828 3.502 5.657 4.983 8.62 2.02 4.175 2.3 8.62.673 12.93-.54 1.347-1.212 2.694-1.886 4.04-.404.808-.54.808-1.347.404-1.75-.808-3.502-1.616-5.118-2.56-2.3-1.347-4.714-2.424-7.138-3.502-.943-.404-1.75-.808-2.56-1.48-.27-.27-.673-.404-.943-.54-1.212-.404-2.56.135-3.098 1.077-.54 1.077-.27 2.424.808 3.098s2.155 1.347 3.367 1.886c4.04 1.886 8.08 4.04 12.122 6.06.27.135.54.135.673.54-.404.673-.808 1.48-1.212 2.155-.27.673-.673.673-1.347.404-1.75-.808-3.367-1.886-4.983-2.828-.404-.27-.808-.54-1.347-.673-1.347-.54-2.694-.27-3.367.943-.673 1.077-.27 2.56.943 3.232 1.886 1.077 3.77 2.424 5.8 3.367.404.135.808.27 1.077.673-.673 1.347-1.616 2.424-2.424 3.77-.404.54-.673.673-1.212.27l-4.175-2.155c-.27-.135-.404-.27-.673-.404-1.212-.54-2.56-.135-3.098.943-.673 1.077-.404 2.424.54 3.232l2.02 1.212c1.077.54 2.155.943 3.232 1.75-1.482 2.3-2.963 4.444-4.445 6.6-3.906 5.926-8.62 11.178-12.93 16.835-3.77 4.848-7.138 9.832-11.18 14.545-8.216 9.697-15.758 19.798-23.974 29.36-.673.673-1.212.943-2.02.673-1.75-.54-3.502-1.212-5.253-1.885-4.04-1.886-7.946-3.77-11.852-5.926-.54-.27-1.212-.673-1.75-1.077-.943-.54-2.02-.673-2.963 0s-1.212 1.616-.943 2.694c.27 1.212.808 2.02 2.02 2.3.673.135 1.347.404 1.886.673 4.58 2.3 9.158 4.714 13.872 6.734.808.404 1.75.404 2.56 1.077-.673.808-1.347 1.48-2.02 2.3-.404.404-.673.404-1.212.404-1.75-.27-3.367-.673-4.983-1.48-1.212-.673-2.56-1.212-3.77-1.886-.673-.404-1.482-.673-2.3-.808-1.347-.135-2.56.673-2.828 2.02-.27 1.212.54 2.3 1.886 2.828.27.135.673.135.943.27 2.56 1.077 4.983 2.694 7.812 3.367-.54.673-1.077 1.212-1.616 1.75-1.077 1.077-2.155 2.02-3.232 3.098-.54.54-.943.54-1.616.27-2.424-1.212-5.118-2.3-7.408-3.906-.135-.135-.27-.27-.404-.27-1.347-.808-2.694-.673-3.502.54-.673 1.077-.54 2.424.673 3.367 1.212 1.077 2.56 1.886 4.04 2.56 1.077.54 2.3 1.077 3.502 1.616-.27.673-.808.943-1.212 1.347l-19.53 19.26c-1.616 1.616-3.098 3.232-4.714 4.983-4.714 4.983-10.236 9.158-15.758 13.2-2.828 2.155-6.195 2.694-9.697 2.424-1.75-.135-2.56-.808-3.098-2.56-.404-1.48-.27-3.098-.135-4.58a73.9 73.9 0 0 1 2.424-10.505c.943-3.636 2.3-7.273 3.636-10.774.404-1.212.404-1.212 1.616-.54 1.75.808 3.367 1.75 5.253 2.155 1.077.27 2.02.54 3.098.673a1.87 1.87 0 0 0 1.212 0c1.077-.27 1.886-1.077 2.02-2.155s-.54-2.02-1.616-2.424c-.673-.27-1.482-.404-2.3-.54-2.424-.404-4.58-1.616-6.87-2.694-.404-.27-.404-.404-.27-.943.54-1.616.54-1.75 2.155-1.077 3.77 1.75 7.677 3.098 11.717 3.906.673.135 1.347.27 1.75.943 0 .135.135.135.27.135 1.212.808 2.3.27 3.502-.27.943-.404 1.482-1.212 1.482-2.3s-.673-2.02-1.886-2.424c-1.077-.27-2.3-.54-3.502-.808-4.175-.943-8.35-2.3-12.256-4.175-.943-.54-.943-.54-.673-1.48l5.387-15.22c1.482-4.444 2.694-9.023 4.04-13.603 1.212-4.58 2.694-9.158 4.445-13.603 2.694-6.734 5.118-13.468 7.408-20.202l8.08-22.895c2.3-6.06 5.118-11.852 7.812-17.508 2.828-5.8 5.387-11.852 8.216-17.643 1.212-2.424 2.424-4.848 3.77-7.138.808-1.48.673-1.347 2.02-.673.673.27 1.347.673 2.02.943s1.482.404 2.3.135c1.212-.27 2.02-1.212 2.02-2.424s-.808-2.155-2.02-2.3c-.943-.135-1.886-.54-2.694-.943-.54-.27-.673-.54-.404-1.077.27-.404.404-.943.54-1.347.404-1.347.404-1.48 1.886-.54 1.75 1.077 3.367 2.155 5.387 2.694.404.135.808.404 1.212.673 1.077.943 2.3.943 3.367.135 1.077-.943 1.212-2.56.404-3.77-.404-.673-1.077-1.077-1.886-1.212-2.694-.673-4.983-2.3-7.273-3.636-.54-.27-.54-.673-.404-1.212.27-.54.404-.943.673-1.48 3.367-7.677 7.408-14.95 12.256-21.683.943-1.347 1.886-2.56 3.232-3.502 1.077-.808 2.155-1.077 3.502-.943 2.3.27 4.58.673 6.6 1.48 6.33 2.424 12.256 5.252 17.778 9.293 1.077.808 2.155 1.48 3.232 2.3 1.616 1.077 3.098 2.424 4.445 3.77 1.75 2.02 3.77 3.906 5.8 5.522 1.75 1.212 3.098 2.694 4.175 4.175zm51.314-10.774c.673 1.212.54 2.155-.673 2.828-1.886 1.077-3.77 1.212-5.657-.135-.808-.54-1.482-.943-2.56-.943-.54 0-.808-.404-1.212-.673-.808-.673-1.75-1.347-2.56-2.02-1.616-1.077-3.502-.27-4.04 1.616-.27 1.077-.404 2.155-.54 3.232-.135 2.828-1.75 3.502-4.3 3.232-1.886-.27-3.367-1.077-4.445-2.694-1.347-2.155-2.828-4.175-4.3-6.195-1.886-2.963-4.714-4.848-7.677-6.6-2.155-1.212-4.175-1.212-6.33-.135a42.43 42.43 0 0 0-9.293 6.061c-.808.673-1.75.808-2.694 1.212-.27.135-.54-.135-.673-.27-.808-.808-1.482-1.616-2.3-2.3-.404-.404-.404-.808-.135-1.212.673-.943 1.212-2.02 1.886-3.098 1.616-2.828 3.367-5.657 4.04-8.754 1.212-4.714 1.482-9.562.808-14.545-.404-2.3-.943-4.444-1.482-6.734-1.347-5.522-4.04-10.236-7.946-14.276-1.75-1.886-3.636-3.636-5.253-5.8-.808-1.077-1.616-2.3-2.02-3.906 1.75.27 3.232.673 4.714 1.347.27.135.404.27.673.404 1.077.54 2.155.404 2.963-.27.808-.808.943-1.886.404-2.963-1.212-2.3-2.694-4.58-4.58-6.465-1.347-1.347-2.56-2.56-4.04-3.77-.673-.54-1.212-1.077-1.886-1.48-.943-.673-1.886-1.347-2.155-2.56-.135-.404-.54-.808-.808-1.212s-.54-.673-.673-1.212c-.135-.808.135-1.077.943-.808.54.135 1.077.27 1.616.54 1.482.404 2.828 1.077 3.636 2.424.27.54.808 1.077 1.347 1.48 1.347.943 3.232.54 3.77-1.077.404-1.077.404-2.155 0-3.367-.943-2.963-1.347-6.06-2.02-9.023-.404-1.75-.27-3.502.135-5.252.135-.54.27-.943.54-1.347.54-.943 1.482-.943 2.02-.135.135.27.404.673.54.943l3.906 8.754a12.52 12.52 0 0 0 .943 1.886c.54.943 1.482 1.347 2.56 1.212 1.077-.27 1.75-.943 2.02-2.02.135-.54.135-1.212.135-1.75.135-2.155-.135-4.3-.135-6.6-.135-2.3.27-4.58 1.212-6.6.54-1.212 1.482-1.616 2.424-.808 1.077.808 1.886 1.75 2.02 3.232.54 5.657 1.347 11.178 2.155 16.835l.404 2.56c.27 1.48 1.212 2.3 2.424 2.3s2.155-.808 2.56-2.155c.673-2.694 1.077-5.387 1.482-8.08.404-2.963.943-6.06 1.616-9.023.404-1.886 1.212-3.367 2.828-4.444.673-.54 1.482-.673 2.3-.673 1.212.135 2.3.27 3.502.673.943.27 1.616.808 1.75 1.886.135.808.27 1.75.808 2.424.27.404.135.943.135 1.347 0 3.636-.54 7.138-1.212 10.64a421.83 421.83 0 0 1-4.041 17.778c-.135.54-.404 1.077-.54 1.75-.27 1.48.135 2.56 1.347 3.098 1.077.54 2.424.135 3.232-1.077l2.828-4.04c3.232-4.3 6.06-8.9 9.158-13.333.673-1.077 1.616-2.155 2.828-2.56.404.404.404.943.404 1.347 0 .673 0 1.347.404 1.886s.135.808-.135 1.212L598.9 94.72c-.27.54-.673 1.077-.943 1.616-.54 1.077-.135 2.3.673 2.963s2.02.673 2.963 0c.404-.27.808-.673 1.212-.943 2.56-2.155 5.118-4.3 7.812-6.195 1.212-.808 1.75-.943 3.367-.404.135.404-.135.54-.27.808-.673 1.077-1.077 2.155-.808 3.367.135.404-.135.673-.404.943-4.04 4.175-7.542 8.754-11.448 13.2-.27.27-.54.54-.808.943-.673.943-.54 2.02.135 2.963.673.808 1.75 1.077 2.828.673.27-.135.54-.27.673-.404 1.75-1.212 3.636-2.155 5.387-3.098 1.212-.673 2.3-1.077 3.77-1.48-.27.808-.404 1.48-.943 2.02-.673.808-.943 1.616-.673 2.694.135.54 0 .808-.404 1.077-4.58 3.367-9.428 6.465-15.22 7.677-2.424.54-4.714 1.212-7.138 1.886-1.482.404-2.963.943-4.3 1.616s-2.56 1.75-3.232 3.098c-2.3 4.3-4.445 8.62-5.926 13.333-.135.54-.27.943-.27 1.48-.135 2.3 1.616 3.906 3.906 3.367.808-.135 1.482-.54 2.155-.943 2.155-1.077 4.175-2.56 6.33-3.906 3.367-2.155 6.734-4.04 10.505-5.522.673-.27 1.347-.54 2.02-.135.673.27 1.347 0 2.02-.27.54-.404 1.212-.404 1.886-.27 1.077.27.943.27.673 1.347-.404 1.48-1.347 2.424-2.424 3.367-.808.673-.943 1.616-.54 2.694.404.943 1.077 1.48 2.155 1.616.943.135 1.886 0 2.694-.135a94.16 94.16 0 0 0 8.485-1.616c.673-.135 1.212-.135 1.616.54s1.212.808 1.886.808c.404 0 .673-.27 1.077 0 0 .54-.27.943-.54 1.347-.27.27-.54.673-.673.943-.27.673-.808.943-1.347 1.077-2.02.673-4.04 1.077-6.06 1.48-.54.135-1.212.27-1.75.404-1.077.404-1.75 1.347-1.616 2.424 0 1.077.673 2.02 1.75 2.424.673.27 1.482.27 2.3.404 1.482.135 2.828.404 4.3.808.54.135.808.404 1.077.943.404.673.673 1.212 1.077 1.75zm-68.9 39.667c-.948-1.742-2.573-2.68-4.604-2.68-1.5 0-2.843.402-4.197 1.206-1.083.536-2.03 1.34-2.98 2.144l-2.843 2.278v-1.072c.27-2.68-.677-5.227-2.03-7.505-.948-1.474-2.166-2.68-3.927-3.217-.406-.134-.812-.268-1.083-.536-1.896-1.206-3.8-.938-5.552.268-1.083.67-2.03 1.608-2.98 2.68-3.8 4.155-6.5 8.98-8.395 14.206-.948 2.814-1.5 5.63-1.354 8.7.27 2.68 1.22 5.093 3.114 7.103 1.76 2 3.927 2.814 6.635 2.412 1.5-.268 2.98-.804 4.333-1.608 1.083-.67 1.083-.67 1.896.268l1.354 1.34c1.625 1.742 3.656 2.814 5.958 3.485 2.03.536 4.062.536 5.958-.536 4.468-2.546 7.853-6.165 10.426-10.588 2.166-3.887 2.573-8.175 2.166-12.598-.135-2.144-.948-4.02-1.896-5.763zM529.7 250.296c-.136-.137-.136-.4-.136-.547-.408-2.323-2.722-3.416-4.763-2.323l-2.04 1.367c-1.77 1.23-3.538 2.186-5.715 2.733-7.348 1.913-14.697 2.186-22.18 1.093-.953-.137-1.633-.4-2.313-1.367-.68-1.093-2.04-1.367-3.13-.82a2.49 2.49 0 0 0-1.361 2.87c.136.4.272.82.272 1.23 0 1.23.68 1.913 1.77 2.46 3.402 1.913 6.804 3.7 10.206 5.466 2.45 1.093 4.763 2.323 7.212 3.416 1.905.957 3.946 1.64 6.124 2.05.953.137 1.905.137 2.858-.4 1.905-1.093 3.674-2.186 5.035-4.1 1.1-1.64 2.45-3.28 3.8-4.646 1.497-1.64 2.722-3.553 3.946-5.466.68-.683.953-1.776.408-3.006zm-1.1-75.484c2.135-.525 4.137-.262 5.87 1.312 1.6 1.443 3.47 1.05 4.27-.787.934-1.968 1.468-4.198 1.2-6.43-.133-1.968-1.2-3.4-3.07-4.198-1.468-.656-3.07-.918-4.67-.525-1.2.262-2.268.656-3.336 1.18-2.135 1.05-4.003 2.493-5.738 4.067-1.468 1.312-1.468 2.755-.133 4.067.267.262.4.525.534.787.667 1.312 1.6 1.706 3.07 1.312.934-.262 1.468-.525 2.002-.787zm26.542 1.238c-2.913.545-5.297 2.044-7.416 4.223-.662.817-.927 1.77-.53 2.725.397 1.1 1.192 1.635 2.25 1.77.53.136 1.192 0 1.722-.136 2.65-.4 2.65-.272 3.576 2.316.265.954.53 1.907 1.06 2.725.662 1.226 2.12 1.635 3.178 1.1 1.192-.68 2.25-2.6 1.986-3.95l-.265-3.815c0-.817 0-1.77-.265-2.6-.53-1.77-1.457-2.997-3.046-3.815-.53-.545-1.457-.68-2.25-.545z" fill="#000"/><path d="M527.112 205.082c-.483-.125-.967-.125-1.45.125s-.846.623-1.208.996c-.604.747-.604 1.62 0 2.24.483.623 1.33.747 2.054.25.604-.374.967-.872 1.33-1.494.363-.872.12-1.743-.725-2.117zM522.7 195.7c-.675-.276-1.216-.7-2.026-.7-1.9 0-3.512.7-4.593 2.207-.946 1.242-1.08 2.62-1.08 4 0 2.07 1.486 4 3.377 4.552 2.702.828 6.08-.552 7.16-3.173.8-1.793.54-3.587-.675-5.242-.54-.7-1.35-1.242-2.16-1.655zm19.472 6.443c-3.922-.974-7.98 3.2-7.033 7.232.54 2.225 2.57 3.755 4.734 3.616.676 0 1.353-.14 2.03-.278 2.164-.556 3.787-2.225 4.058-4.3.27-2.643-.812-5.007-3.1-6.12-.27 0-.54-.14-.676-.14zm3.108 15.752c.926-.268 1.72-1.34 1.72-2.276 0-.67-.264-1.205-.926-1.473-.53-.268-1.058-.134-1.587.134s-.926.67-1.2 1.07c-.397.67-.397 1.473 0 2.008.53.536 1.2.803 1.983.536zm-336.75-18.758c-6.623 1.192-9.934 10.2-5.52 15.102 2.345 2.782 6.485 3.577 9.658 1.855.966-.53 2.07-1.192 2.897-1.855 2.897-2.252 4.14-5.83 3.035-8.876-1.518-3.974-4.83-6.5-9.106-6.36-.138 0-.552 0-.966.132zm-20.917 19.89c-1.267.128-2.252.642-3.097 1.668-.704.898-1.267 1.925-1.408 2.95-.422 1.796.422 3.464 1.97 4.106 1.7.642 3.66 0 4.645-1.54.845-1.155 1.126-2.566 1.267-4.106.14-1.796-1.408-3.336-3.378-3.08zm38.7-3.256c1.596-1.556 2.128-4.386 1.33-6.508-.532-1.415-1.862-2.264-3.193-2.264-1.197 0-2.26.566-3.06 1.84-.798 1-1.064 2.264-1.33 3.537-.266 1.84.532 3.537 1.995 4.245 1.33.707 3.06.424 4.257-.85z" fill="#fff"/><path d="M307.027 69.7c-7.53-5.782-16.002-9.412-25.684-9.143-4.976.134-9.548 1.613-13.447 4.84-1.076.94-2.152 1.882-3.227 2.958-.672.538-1.2 1.2-2.017 1.613-1.883 1.076-3.9.27-4.707-1.748-.27-.807-.27-1.748-.134-2.555.807-5.513-.807-10.488-3.63-15.06-1.2-2.017-3.093-3.36-5.513-4.034-1.48-.403-2.958-.27-4.438.403a10.55 10.55 0 0 0-4.841 4.84c-.27.538-.403.94-.672 1.345-1.345 2.15-4.303 2.017-5.38-.27-.27-.538-.403-1.076-.538-1.613-1.076-2.958-3.093-4.437-6.186-4.706-2.824-.27-5.513.538-8.068 1.748-1.076.538-2.017 1.2-2.69 2.15-1.614 2.017-3.227 4.034-5.244 5.647-1.748 1.345-3.63 1.48-4.84.27-1.345-1.2-1.345-2.824-.134-4.706 1.48-2.42 3.496-4.437 5.782-6.185.807-.672 1.614-1.345 2.152-2.15 2.42-3.36 3.765-6.857 3.496-11.025 0-1.48.134-2.958-.27-4.303-1.345-4.706-3.9-9.01-7.665-11.967-5.38-4.168-11.565-6.857-18.288-7.798-3.765-.538-7.127 0-10.085 2.42-.94.807-2.017 1.2-3.362 1.48-.403.134-.94.134-1.345 0-2.555-.538-4.84-1.345-7.262-2.42-4.572-2.017-9.548-2.958-14.523-2.69-4.17.27-7.53 1.882-10.085 5.11-1.48 1.748-2.42 3.63-3.362 5.647-.94 2.15-2.555 2.958-4.84 2.42-.807-.134-1.614-.538-2.555-.807-2.824-.94-5.782-1.613-8.875-1.748-4.034-.27-7.53.807-10.623 3.36-1.614 1.345-2.42 2.958-1.883 5.244.538 2.42-1.614 4.303-4.034 3.765-.672-.134-1.345-.538-2.152-.807-3.093-1.076-6.186-.807-9 .807-3.093 1.882-4.84 4.706-5.782 8.067-.94 3.227-1.076 6.454-1.2 9.815-.134 3.092-2.286 4.57-5.244 3.496-1.076-.403-2.017-.94-2.958-1.345-3.765-1.882-7.665-2.958-11.834-3.227-5.648-.403-10.892.94-15.464 4.034-4.034 2.69-6.59 6.32-7.665 11.025-.807 3.092-.94 6.32-.807 9.546.134 2.15.807 4.034 2.286 5.647.403.403.807.94 1.2 1.48a3.05 3.05 0 0 1-2.824 4.571c-.538 0-1.076-.134-1.48-.27-1.748-.538-3.496-.538-5.1-.27-5.1.94-9.413 3.36-12.775 7.395-1.345 1.613-2.152 3.36-2.69 5.378-1.614 5.647-1.076 11.16.94 16.538 1.345 3.9 3.765 7.126 6.993 9.68.134.134.27.27.403.27 1.2 1.076 1.48 2.555.94 3.765s-1.883 2.017-3.496 1.882c-1.076-.134-2.152-.403-3.227-.538-7.262-.27-13.985 5.378-13.716 14.118 0 1.2.403 2.286.94 3.36 1.076 2.017 2.555 3.765 4.572 4.975 1.076.672 2.286 1.2 3.765 1.2.94 0 1.748.134 2.42.672 1.076.807 1.614 1.748 1.48 3.092s-.94 2.15-2.286 2.555c-.538.134-1.076.27-1.48.134-2.152-.672-3.765.538-5.1 1.882-3.63 3.765-5.244 8.336-4.438 13.58 1.076 6.723 4.572 12.235 9.144 17.076 1.345 1.48 2.824 2.555 4.438 3.63 6.858 4.034 14.39 6.454 22.457 6.454 3.9 0 7.934-.403 11.834-.94 11.296-1.345 18.826-7.798 23.936-17.48.94-1.613 1.48-3.36 2.286-5.11.807-1.48 2.017-2.15 3.496-1.882 1.345.27 2.286 1.48 2.42 2.958.134.807 0 1.48.134 2.286.134 3.227 1.2 6.05 3.63 8.47 2.958 2.958 6.59 4.84 10.758 5.647 3.227.672 6.186 0 8.875-2.017 1.345-.94 2.555-2.15 3.63-3.496.403-.538.807-.94 1.345-1.345 1.748-1.345 4.17-.672 4.976 1.48.27.538.27 1.076.27 1.748.134 2.017.27 4.034.94 5.916 1.748 4.706 4.84 7.933 10.085 8.874 2.017.403 4.17 0 6.186-.27 6.724-.807 12.775-3.36 18.02-7.664 4.034-3.496 7.8-7.26 11.027-11.563 2.286-2.958 4.034-6.32 5.1-9.95.672-2.286 1.2-4.57 1.614-6.992.538-3.496.94-7.126.134-10.756-.27-1.076-.538-2.017-.94-2.958-.807-1.613-1.48-3.36-1.748-5.11s.538-3.36 2.017-3.9 3.093 0 4.034 1.613c.27.538.538 1.076.807 1.748.27.807.672 1.613.807 2.42.403 2.017 1.614 3.496 2.958 4.706 2.017 1.882 4.438 2.824 7.127 3.36 4.572.807 7.396-.538 9.682-4.706 1.076-2.017 1.883-4.168 2.69-6.454.538-1.345.94-2.69.807-4.303 0-.807.134-1.48.538-2.15.672-1.613 2.286-2.555 3.765-2.15 1.614.403 2.69 1.882 2.555 3.63 0 .538-.134 1.076-.27 1.48-.538 1.613.134 2.555 1.345 3.496 2.152 1.748 5.244 1.882 7.53.27 2.42-1.748 4.034-4.168 4.572-7.126.27-1.748.538-3.63.94-5.244.27-.807.403-1.613.94-2.286.807-1.076 1.883-1.748 3.227-1.48 1.48.27 2.286 1.2 2.69 2.69a8.14 8.14 0 0 1 0 2.555c-.27 1.48-.538 2.824-1.076 4.168-.94 2.42-.94 4.84-.807 7.395.134 1.613.27 3.092.672 4.706.672 3.63 1.748 7.26 3.765 10.353 1.48 2.286 3.496 3.9 6.186 4.437 1.48.27 3.093.403 4.707.27 3.227-.27 6.455-.94 9.413-2.286 7.53-3.227 13.447-8.202 18.423-14.8a22.21 22.21 0 0 0 2.824-5.647c.94-3.092 1.48-6.32 1.748-9.546.403-4.975-.807-9.412-3.496-13.58-1.48-2.15-2.824-4.303-4.303-6.32a10.5 10.5 0 0 0-3.631-3.227c-.538-.27-1.076-.672-1.614-1.076-1.345-.94-1.748-2.286-1.2-3.63s1.748-2.15 3.496-2.017c.807 0 1.48.27 2.152.538 2.42.807 4.707 1.48 7.262 1.748 10.22 1.076 18.826-1.882 25.82-9.68 2.286-2.555 4.303-5.513 6.05-8.47.807-1.48 1.48-3.092 2.017-4.84.672-2.15.807-4.168.134-6.32-1.883-3.63-4.034-7.395-7.53-10.22z" fill="#006837"/><path d="M248.98 176c-9.293.54-14.545-3.104-17.912-9.85-.135-.405-.27-.945-.808-1.08-.54.675-.943 1.214-1.616 1.754s-1.077 1.214-1.48 1.89c-3.77 6.882-7.138 13.9-9.023 21.456-.27.945-.135 1.484.808 1.89 4.04 2.294 7.003 5.533 9.427 9.58 3.77 6.072 5.118 12.685 4.983 19.702-.135 8.232-4.3 17.138-14.95 20.242-6.06 1.62-11.717 1.08-16.835-2.97-1.48-1.08-2.694-2.294-4.175-3.778-.54 1.89-.943 3.51-1.616 4.993-3.098 7.962-8.89 12.685-17.373 13.764-7.542.8-13.737-1.62-17.778-8.366-1.75-2.834-2.828-5.938-3.502-9.31-.943-4.858-1.616-9.716-1.347-14.71.404-7.557 6.465-16.733 14.95-19.972 1.616-.675 3.232-.8 4.848 0 .54.27 1.077.405 1.616.54 3.636.54 6.734 2.16 9.293 4.723 1.347 1.35 2.828 2.834 3.906 4.453.27.27.404.8.943.675 1.077-4.048 2.828-7.962 4.983-11.74 2.56-4.723 6.6-7.692 11.582-9.446.27-.135.673-.135.808-.54-.808-1.214-1.885-2.294-2.963-3.374-3.77-3.778-7.407-7.557-10.91-11.47-2.828-3.104-5.387-6.342-7.273-9.986-.404-.8-1.077-1.08-2.02-1.08-.135 2.294-.404 4.453-.808 6.612-1.48 8.366-4.58 15.788-10.37 22.13-2.02 2.294-4.04 4.453-6.195 6.612-6.734 6.612-14.815 10.795-24.242 12-3.232.405-6.465.8-9.697 0-6.87-1.754-11.178-6.207-13.603-12.82-.27-.54-.404-1.214-.54-1.754h-.27c-.404.27-.808.54-1.347.8-2.56 1.62-5.252 2.834-8.215 2.97-8.35.54-17.778-4.588-21.953-11.74-.135-.27-.27-.675-.673-.675-.404.135-.404.405-.673.675-2.02 2.834-4.3 5.398-6.87 7.827-1.48 1.35-1.48 1.35.135 2.564 6.33 4.858 13.333 8.906 20.47 12.55 6.195 3.24 11.852 7.017 17.24 11.47 5.79 4.858 11.852 9.446 17.104 14.844 7.677 7.962 14.68 16.328 21.28 25.234 9.293 12.55 15.892 26.45 20.606 41.158 1.885 5.803 3.502 11.875 5.118 17.813.27.945.54 1.35 1.616 1.35.943 0 1.616.54 2.155 1.35.404.675.808 1.35 1.212 2.16.27.405.404.8.808 1.08 1.616.675 3.098 1.484 4.714 2.294 1.077.54 2.155.54 3.232.405 2.155-.405 4.3-.8 6.465-1.08 2.828-.405 5.79-.8 8.485-1.89 3.636-1.35 7.138-2.7 10.91-3.643 2.02-.54 3.77-1.484 5.522-2.7 3.367-2.564 6.6-5.398 9.158-8.77 1.212-1.62 2.424-3.24 4.04-4.588.673-.54.808-1.08.673-1.754l-.404-4.858c-1.077-9.31-1.885-18.487-2.02-27.798-.135-7.422-.135-14.844.404-22.13.404-5.803 1.212-11.605 1.616-17.408.808-11.875 2.3-23.75 4.58-35.5 1.48-7.557 3.367-14.98 6.6-21.996.135-.27.27-.54.135-.945-.943-.135-2.02 0-2.963.135zm-25.185 100.533c-.404 1.484-1.077 2.97-2.02 4.318-3.502 5.533-8.754 8.906-14.815 11.065-2.56.945-5.252.54-7.946-.135-5.387-1.484-10.37-3.778-14.815-7.017-3.098-2.16-5.387-5.128-6.734-8.636-.54-1.484-.673-2.97.27-4.318.54-.8.808-.8 1.347 0 .404.54.673 1.08.808 1.754.808 2.564 2.56 4.318 4.848 5.533.943.54 1.75 1.08 2.56 1.754 2.155 1.89 4.714 3.104 7.542 3.778 1.616.405 3.232 1.08 4.983 1.484 4.04.8 7.542 0 10.91-2.294 1.616-1.214 3.232-2.43 4.58-4.048 2.02-2.43 4.714-4.183 6.87-6.612 1.616.675 2.155 1.754 1.616 3.374z" fill="#8cc63f"/><path d="M171.776 207.032c-1.47 0-2.805-.135-4.14.54-3.34 1.62-5.61 4.188-6.412 7.97-.668 2.837.267 5.54 1.47 8.106 1.737 3.648 6.01 5.81 10.02 5.27 5.477-.81 10.42-6.214 10.286-11.888-.134-3.918-2.137-6.9-5.744-8.78-1.737-1.08-3.607-1.35-5.477-1.216z" fill="#fff"/><path d="M310.414 64.484c-8.482-6.727-18.042-10.63-29.082-10.63-6.06 0-11.714 1.615-16.695 5.247-.27.27-.54.538-1.077.538-.404-.404-.27-.807-.404-1.345-.808-4.17-2.154-8.073-4.443-11.57-2.154-3.364-5.25-5.516-9.02-6.593-3.097-.942-5.924-.538-8.75.807-1.616.807-2.962 1.75-4.174 2.96-.54.538-.942.673-1.48 0-1.885-2.153-4.308-3.23-7.136-3.767-1.75-.404-3.635-.27-5.386-.135-.404 0-.808.27-1.212-.135.135-.404.27-.807.27-1.345a30.62 30.62 0 0 0 .404-12.11c-.808-5.113-5.924-13.186-10.233-16.28-2.962-2.153-6.193-3.902-9.425-5.65-1.077-.538-2.3-.942-3.366-1.345-2.3-.538-4.443-1.2-6.732-1.615-5.52-1.2-10.906-.673-15.618 2.825-.27.135-.54.404-.808.404-1.48-.673-3.097-.27-4.578-.942-5.8-2.825-11.983-4.036-18.445-3.767-5.116.27-9.425 2.018-13.195 5.65-1.885 1.75-3.366 3.767-4.578 6.055-.404.942-.942.942-1.75.673-1.48-.404-2.962-.807-4.443-1.076-3.905-.807-7.944-1.2-11.848-.135-5.52 1.48-10.098 4.17-12.252 9.822-.27.673-.54.807-1.212.673-2.02-.27-3.905-.404-5.924.135-6.463 1.48-10.77 5.516-13.33 11.706-1.077 2.7-1.616 5.516-1.75 8.476-.135 1.345-.135 1.48-1.48.942-3.097-1.345-6.193-2.153-9.56-2.7-7.54-.942-14.54.135-21.138 4.17C44.234 48.34 40.195 54 38.85 61.4c-.808 4.7-1.212 9.418.135 14.262l-1.885.404c-5.386.942-10.098 3.364-14.137 7.13A20.9 20.9 0 0 0 16.5 94.498c-.808 3.498-1.077 7.13-.673 10.764.673 5.113 2.02 9.956 4.982 14.396.27.27.54.673.54 1.076-.135.135-.135.135-.27.135-.404.135-.942.27-1.346.404-5.924 1.75-10.233 5.382-12.656 11.033-3.23 7.67-2.02 14.262 4.308 20.182.27.27.54.538 1.212 1.076-.404.27-.673.404-.942.538-5.655 5.92-7.8 12.782-6.06 20.72 1.48 6.458 4.712 11.975 8.886 16.953 2.3 2.7 4.847 4.978 7.944 6.727 4.443 2.556 9.3 4.575 14.272 5.785 5.52 1.345 11.175 1.48 16.83 1.076 6.328-.538 12.8-1.2 18.58-4.17.673-.27.942-.27 1.48.135 5.386 4.305 11.04 8.207 17.1 11.436l9.02 4.844c3.097 1.75 6.193 3.633 9.155 5.785 5.924 4.7 11.848 9.553 17.503 14.53 2.02 1.75 3.77 3.633 5.52 5.516 6.732 7.13 13.06 14.8 18.984 22.738 9.02 12.1 15.35 25.698 19.926 40.095 2.154 6.862 4.04 13.858 5.924 20.72.135.27.135.673.404.942 1.346 1.884 6.597 4.44 7.136 4.575 1.75.538 3.23 1.48 4.847 2.287 2.3.942 4.578 1.48 7 1.076 2.962-.538 5.8-1.076 8.75-1.345 2.962-.404 5.8-1.076 8.617-2.153 2.962-1.2 6.06-2.153 9.3-3.095 2.558-.807 4.982-1.75 7.27-3.364 4.04-2.825 7.674-6.055 10.636-9.956 1.346-1.75 2.693-3.498 4.443-4.844 1.48-1.2 2.154-2.7 1.885-4.575-.135-2.018-.27-4.17-.54-6.2-.808-7.67-1.616-15.204-1.885-22.873-.27-8.6-.404-17.222.27-25.698.404-6.2 1.212-12.244 1.616-18.433.808-10.36 2.02-20.72 3.905-30.946 1.616-8.746 3.635-17.5 7.674-25.564.404-.673.808-1.48.673-2.287 0-.942.404-1.345 1.212-1.615 7.674-3.23 14.002-8.342 19.388-14.666 2.693-3.23 4.578-6.996 5.655-11.033.808-2.96 1.346-6.055 1.616-9.015.54-5.516-.404-10.764-3.23-15.607-.942-1.75-2.154-3.364-3.097-4.978-.27-.404-.673-.673-.404-1.2.54-.27 1.077 0 1.616 0 8.482.27 16.157-1.884 23.023-6.996 4.982-3.767 8.617-8.746 11.714-14.127 1.212-2.153 2.3-4.305 2.962-6.727.673-2.287 1.077-4.575.673-6.996-1.077-7.266-4.04-12.916-9.425-17.087zm-58.568 111.27c-3.23 6.996-5.116 14.396-6.597 21.93-2.3 11.706-3.77 23.4-4.578 35.386-.404 5.785-1.077 11.57-1.616 17.356-.54 7.4-.54 14.666-.404 22.066.135 9.284.942 18.567 2.02 27.717l.404 4.844c.135.807-.135 1.345-.673 1.75-1.616 1.345-2.827 2.96-4.04 4.575-2.558 3.498-5.655 6.324-9.155 8.746-1.616 1.2-3.5 2.018-5.52 2.7a172.56 172.56 0 0 0-10.906 3.633c-2.693 1.076-5.655 1.345-8.482 1.884-2.154.27-4.308.673-6.463 1.076-1.077.135-2.154.135-3.23-.404l-4.712-2.287c-.54-.27-.673-.673-.808-1.076-.404-.673-.808-1.48-1.212-2.153-.54-.807-1.212-1.345-2.154-1.345-1.077 0-1.346-.538-1.616-1.345l-5.116-17.76c-4.712-14.666-11.3-28.524-20.6-41.037-6.597-8.746-13.598-17.222-21.273-25.16-5.25-5.382-11.3-9.956-17.1-14.8-5.25-4.44-11.04-8.342-17.234-11.436-7.136-3.767-14.002-7.67-20.465-12.513-1.616-1.2-1.616-1.2-.135-2.556 2.558-2.422 4.982-4.978 6.867-7.804.135-.27.27-.538.673-.673.404 0 .404.404.673.673 4.308 7.266 13.598 12.244 21.946 11.706 3.097-.135 5.8-1.345 8.213-2.96.404-.27.808-.538 1.346-.807h.27c.135.538.404 1.076.54 1.75 2.423 6.458 6.732 11.033 13.598 12.782 3.23.807 6.463.404 9.694 0 9.425-1.2 17.368-5.382 24.235-11.975a142.96 142.96 0 0 0 6.193-6.593c5.8-6.324 8.886-13.724 10.367-22.066.404-2.153.673-4.305.808-6.593.942 0 1.616.27 2.02 1.076 1.885 3.633 4.443 6.862 7.27 9.956 3.635 3.902 7.136 7.804 10.906 11.436 1.077 1.076 2.154 2.153 2.962 3.364-.135.538-.54.538-.808.538-5.116 1.615-9.02 4.7-11.58 9.418-2.02 3.767-3.77 7.535-4.982 11.706-.54 0-.673-.404-.942-.673-1.077-1.615-2.558-3.095-3.905-4.44-2.558-2.556-5.655-4.17-9.3-4.7-.54-.135-1.077-.27-1.616-.538-1.616-.673-3.23-.538-4.847 0-8.482 3.095-14.406 12.378-14.945 19.913-.27 4.978.404 9.822 1.346 14.666.673 3.23 1.75 6.324 3.5 9.284 4.04 6.862 10.233 9.284 17.772 8.342 8.482-.942 14.272-5.65 17.368-13.724l1.616-4.978c1.48 1.48 2.827 2.7 4.174 3.767 5.116 3.902 10.77 4.575 16.83 2.96 10.77-2.96 14.8-11.975 14.945-20.182.135-6.996-1.346-13.6-4.982-19.644-2.423-4.036-5.386-7.266-9.425-9.553-.808-.538-1.077-.942-.808-1.884 1.885-7.67 5.25-14.666 9.02-21.393.404-.673.808-1.345 1.48-1.884.54-.538 1.077-1.2 1.616-1.75.54.27.54.673.808 1.076 3.366 6.727 8.75 10.495 17.907 9.822 1.077-.135 2.02-.135 3.097-.27 0 .673-.27.942-.27 1.076zm-38.372 7.4c-.135.27-.135.673-.54.942-5.8-5.785-11.58-11.57-17.1-18.164 8.482-.27 12.52-5.516 15.214-12.647 2.693 1.615 5.25 2.7 8.213 2.556 2.827 0 5.386-1.076 7.674-2.825.404.673.27 1.2.54 1.75.404 1.2.673 2.422-1.077 2.96-.27.135-.54.404-.673.673-.942 1.345-2.02 2.556-2.693 4.036-3.77 6.727-7.405 13.32-9.56 20.72zm4.443 21.393c1.077 3.095-.135 6.727-2.962 9.015-.942.673-1.885 1.345-2.827 1.884-3.097 1.75-7.136.942-9.425-1.884-4.174-5.113-1.077-14.127 5.386-15.338.404-.135.808-.135.942-.135 4.174-.135 7.405 2.422 8.886 6.458zM191 221.635c-.135 1.615-.404 2.96-1.212 4.305-1.077 1.615-2.827 2.287-4.443 1.615s-2.423-2.422-1.885-4.305c.27-1.076.673-2.153 1.346-3.095s1.75-1.615 2.962-1.75c1.75-.27 3.23 1.345 3.23 3.23zm-8.348-5.516c.135 5.65-4.847 11.033-10.367 11.84-4.04.538-8.213-1.615-10.098-5.247-1.212-2.556-2.154-5.113-1.48-8.073.808-3.767 3.097-6.324 6.463-7.938 1.212-.538 2.558-.538 4.174-.538 1.885-.135 3.77.27 5.52 1.076 3.635 1.884 5.655 4.844 5.8 8.88zm36.9-4.44c.135-1.2.54-2.422 1.346-3.364a4.33 4.33 0 0 1 3.097-1.75c1.48 0 2.693.807 3.23 2.153.808 2.018.27 4.7-1.346 6.2-1.212 1.2-2.962 1.48-4.308.807-1.48-.673-2.3-2.287-2.02-4.036zM313.25 86.416a37.1 37.1 0 0 1-2.02 4.844 37.48 37.48 0 0 1-6.059 8.476c-6.867 7.804-15.618 10.764-25.85 9.687-2.558-.27-4.847-.942-7.27-1.75-.673-.27-1.48-.538-2.154-.538-1.616-.135-2.962.673-3.5 2.018s0 2.7 1.212 3.633c.54.404 1.077.673 1.616 1.076a10.51 10.51 0 0 1 3.635 3.229l4.308 6.324c2.827 4.036 4.04 8.6 3.5 13.6-.27 3.23-.808 6.458-1.75 9.553-.673 2.018-1.48 3.902-2.827 5.65-4.847 6.458-10.906 11.57-18.445 14.8-2.962 1.2-6.193 1.884-9.425 2.287-1.616.135-3.097 0-4.712-.27-2.693-.538-4.712-2.153-6.193-4.44-2.02-3.23-3.097-6.727-3.77-10.36-.27-1.48-.54-3.095-.673-4.7-.135-2.556-.135-4.978.808-7.4.54-1.345.673-2.825 1.077-4.17.135-.807.27-1.75 0-2.556-.27-1.48-1.212-2.422-2.693-2.7-1.346-.27-2.423.404-3.23 1.48-.404.673-.673 1.48-.942 2.287-.404 1.75-.673 3.498-.942 5.247-.54 2.96-2.154 5.382-4.578 7.13-2.154 1.615-5.386 1.345-7.54-.27-1.077-.942-1.885-1.884-1.346-3.498.135-.538.27-1.076.27-1.48.135-1.75-.942-3.23-2.558-3.633-1.48-.404-3.097.538-3.77 2.153-.27.673-.54 1.48-.54 2.153.135 1.48-.404 2.825-.808 4.305-.808 2.153-1.48 4.44-2.693 6.458-2.3 4.036-5.116 5.516-9.694 4.7-2.693-.404-5.116-1.48-7.136-3.364-1.48-1.345-2.693-2.7-2.962-4.7-.135-.807-.54-1.615-.808-2.422-.27-.538-.54-1.2-.808-1.75-.942-1.615-2.558-2.153-4.04-1.615s-2.3 2.153-2.02 3.902.942 3.498 1.75 5.113c.54.942.808 1.884.942 2.96.808 3.633.404 7.13-.135 10.764-.404 2.287-.942 4.7-1.616 6.996-1.077 3.633-2.827 6.996-5.116 9.956-3.23 4.17-7 8.073-11.04 11.57-5.25 4.44-11.3 6.862-18.042 7.67-2.02.27-4.174.538-6.193.27-5.116-.807-8.348-4.036-10.098-8.88-.673-1.884-.942-3.902-.942-5.92 0-.538 0-1.2-.27-1.75-.808-2.153-3.097-2.825-4.982-1.48-.54.404-.942.942-1.346 1.345-1.077 1.2-2.3 2.422-3.635 3.498-2.693 2.018-5.655 2.7-8.886 2.018-4.174-.807-7.8-2.7-10.77-5.65-2.3-2.287-3.5-5.113-3.635-8.476 0-.807 0-1.48-.135-2.287-.135-1.615-1.077-2.7-2.423-2.96-1.48-.27-2.827.27-3.5 1.884-.808 1.615-1.48 3.498-2.3 5.113-5.25 9.687-12.8 16.146-23.966 17.5-3.905.538-7.8.942-11.848.942-8.078 0-15.483-2.422-22.485-6.458-1.616-.942-3.23-2.153-4.443-3.633-4.578-4.844-8.078-10.36-9.155-17.087-.942-5.113.673-9.822 4.443-13.6 1.346-1.345 2.962-2.556 5.116-1.884.404.135 1.077 0 1.48-.135 1.346-.404 2.154-1.2 2.3-2.556s-.404-2.422-1.48-3.095c-.808-.538-1.616-.673-2.423-.673-1.346 0-2.558-.538-3.77-1.2-2.02-1.2-3.5-2.96-4.578-4.978-.54-1.076-.942-2.153-.942-3.364-.27-8.6 6.463-14.396 13.733-14.127 1.077 0 2.154.404 3.23.538 1.48.135 2.962-.538 3.5-1.884.54-1.2.27-2.7-.942-3.767-.135-.135-.27-.27-.404-.27-3.23-2.556-5.655-5.785-7-9.687-2.02-5.382-2.423-10.898-.942-16.55.54-2.018 1.48-3.767 2.693-5.382 3.366-4.036 7.674-6.458 12.8-7.4 1.75-.27 3.5-.27 5.116.27.54.135 1.077.27 1.48.27a3.05 3.05 0 0 0 2.827-4.575c-.27-.538-.673-1.076-1.212-1.48-1.48-1.615-2.154-3.498-2.3-5.65-.27-3.23 0-6.324.808-9.553 1.077-4.7 3.77-8.342 7.674-11.033 4.712-3.095 9.963-4.44 15.483-4.036 4.174.27 8.078 1.345 11.848 3.23.942.538 2.02.942 2.962 1.345 2.962 1.076 5.116-.404 5.25-3.498.135-3.364.27-6.593 1.212-9.822.942-3.364 2.693-6.324 5.8-8.073 2.827-1.75 5.924-2.018 9.02-.807.673.27 1.346.673 2.154.807 2.423.538 4.578-1.345 4.04-3.767-.54-2.287.404-3.902 1.885-5.247 3.097-2.556 6.597-3.633 10.636-3.364 2.962.27 5.924.807 8.886 1.75.808.27 1.616.538 2.558.807 2.3.538 3.905-.27 4.847-2.422.942-2.018 1.885-3.902 3.366-5.65 2.693-3.095 6.06-4.844 10.098-5.113 5.116-.27 9.963.673 14.54 2.7a32.97 32.97 0 0 0 7.27 2.422 2.29 2.29 0 0 0 1.346 0c1.212-.27 2.3-.673 3.366-1.48 2.962-2.422 6.463-2.96 10.098-2.422 6.867.942 13.06 3.633 18.3 7.804 3.77 2.96 6.328 7.266 7.674 11.975.404 1.345.27 2.825.27 4.305.27 4.17-1.077 7.804-3.5 11.033-.673.807-1.346 1.615-2.154 2.153-2.3 1.615-4.308 3.633-5.8 6.2-1.212 2.018-1.077 3.633.135 4.7 1.346 1.2 3.097 1.076 4.847-.27 2.02-1.615 3.635-3.633 5.25-5.65.808-.942 1.616-1.615 2.693-2.153 2.558-1.2 5.25-1.884 8.078-1.75 3.097.27 5.25 1.75 6.193 4.7.135.538.27 1.076.54 1.615 1.212 2.287 4.04 2.422 5.386.27.27-.404.404-.942.673-1.345a10.56 10.56 0 0 1 4.847-4.844c1.346-.673 2.827-.807 4.443-.404 2.3.673 4.174 1.884 5.52 4.036 2.827 4.7 4.443 9.553 3.635 15.07-.135.807-.135 1.75.135 2.556.673 2.018 2.827 2.825 4.712 1.75.808-.404 1.346-1.076 2.02-1.615 1.077-.942 2.154-2.018 3.23-2.96 3.905-3.23 8.482-4.7 13.464-4.844 9.694-.27 18.176 3.364 25.716 9.15 3.5 2.7 5.655 6.593 6.867 10.898 1.346 1.345 1.212 3.498.54 5.65zm-91.002 185.516c-2.162 2.265-4.866 4.13-6.893 6.528-1.352 1.6-2.973 2.798-4.595 3.997-3.244 2.265-6.893 3.198-10.947 2.265-1.757-.4-3.38-1.066-5-1.466-2.838-.666-5.406-1.732-7.57-3.73-.8-.666-1.622-1.2-2.568-1.732-2.298-1.2-3.92-2.93-4.866-5.462-.27-.533-.54-1.2-.8-1.732-.54-.8-.8-.8-1.352 0-.8 1.332-.8 2.798-.27 4.263 1.352 3.597 3.65 6.395 6.758 8.527 4.595 3.198 9.596 5.462 14.867 6.928 2.568.666 5.27 1.066 7.974.133 6.082-2.132 11.353-5.462 14.867-10.925.8-1.332 1.622-2.665 2.027-4.263.405-1.2-.135-2.265-1.622-3.33z" fill="#000"/><path d="M342.39 268.915l2.018-5.245c2.093-6.22 3.363-12.59 3.513-19.108.075-2.473.224-4.946-.3-7.418-1.196-5.545-3.214-10.715-6.577-15.36-1.943-2.698-4.335-4.87-7.25-6.444-1.12-.6-2.242-.375-3.14.45-3.438 3.447-7.474 6.144-11.958 8.243-3.064 1.424-6.203 2.098-9.64 1.873-.3 0-.673-.075-1.12.075 1.196 2.173 2.84 3.822 4.708 5.245.822.6 1.72 1.05 2.765 1.05s1.868.45 2.242 1.424c.448 1.05-.075 1.873-.747 2.698-2.466 2.772-5.755 4.046-9.342 4.27-2.765.15-5.456.075-8.22-.375-.972-.15-1.868-.075-2.84.075-.747.15-1.27.525-1.794 1.124-2.317 2.698-2.69 6.07-3.214 9.367-.075.375.15.525.448.525.224 0 .374.075.598.075 2.242.225 4.11 1.2 5.68 2.698 2.242 2.098 3.812 4.57 4.708 7.643 1.27 4.42.747 8.617-1.42 12.514-2.392 4.27-6.278 6.52-11.21 6.52-5.082 0-9.566-3.297-11.06-7.943-.523-1.65-.822-3.372-.822-5.17.075-2.847.448-5.62 1.345-8.392.822-2.623 1.943-5.02 4.036-6.97.3-.3.3-.525 0-.824-1.345-1.574-2.242-3.447-3.438-5.17-2.018-2.922-3.214-6.144-3.737-9.59-.075-.6-.15-1.274-.598-1.798-.448 0-.822.375-1.196.6-3.438 1.948-7.025 3.147-11.06 2.922-3.214-.225-6.427-.3-9.64-.45-2.242-.075-4.484-.225-6.652-.375-.374 0-.822-.075-1.196-.225-.897-.3-1.495-.974-1.57-1.873s.3-1.65 1.046-2.098c.3-.225.598-.375.972-.525 1.27-.6 2.466-1.274 3.513-2.173 1.12-.974 2.466-3.522 2.616-5.17-2.167.525-4.11 1.424-5.98 2.698-2.69 1.873-5.157 4.046-7.25 6.594-3.812 4.646-6.8 9.666-7.4 15.81-.523 4.796-.224 9.516 1.72 14.012 2.392 5.62 5.605 10.715 9.492 15.436 1.868 2.248 3.812 4.42 5.68 6.594 5.83 6.82 12.182 13.038 18.983 18.808.673.6 1.42 1.124 2.167 1.65 3.513 2.398 6.95 4.796 10.538 7.044 3.886 2.473 7.997 4.42 12.556 5.32 2.84.525 5.605.674 8.37-.15 2.84-.9 5.605-2.023 8.072-3.747 1.794-1.274 3.513-2.548 5.306-3.896 2.466-1.798 4.634-3.896 6.652-6.144 6.427-7.268 10.912-15.736 15.097-24.428 2.242-4.196 3.812-8.243 5.53-12.29zm-51.718 24.653c-.15 1.124-1.046 1.873-2.616 1.798-.224-.075-.747-.075-1.196-.225-4.56-1.2-8.22-3.672-10.687-7.793-.3-.45-.598-.824-.897-1.274-.822-.974-.747-2.248.075-2.997.897-.824 2.167-.824 3.14.075.448.375.747.9 1.046 1.424 1.943 3.672 5.082 5.695 9.043 6.52.075 0 .15 0 .224.075 1.27.375 2.018 1.2 1.868 2.398zm34.678-33.944c0 2.098-.224 3.672-.523 5.245-.448 2.173-1.42 4.046-2.915 5.695-2.093 2.248-4.708 3.072-7.698 2.772-1.42-.15-2.765-.525-4.11-1.124-2.765-1.274-4.4-3.447-4.783-6.37-.448-3.597-.523-7.268.374-10.8.448-1.65.972-3.222 1.943-4.57 1.42-2.098 3.363-3.522 5.904-3.896 2.765-.375 5.38.3 7.25 2.398 1.57 1.723 2.84 3.747 3.662 5.995.673 1.5.897 3.297.897 4.646z" fill="#c1272d"/><g fill="#000"><path d="M321.517 249.53c-1.905-2.103-4.397-2.854-7.108-2.404-2.5.376-4.397 1.803-5.8 3.906-.953 1.427-1.54 3.004-1.905 4.582-.88 3.605-.88 7.2-.366 10.816.366 3.004 2.052 5.108 4.7 6.384 1.32.6 2.638.976 4.03 1.127 2.93.3 5.496-.526 7.548-2.78a12 12 0 0 0 2.858-5.708c.293-1.577.44-3.155.513-5.258.073-1.352-.147-3.08-.806-4.807-.88-2.103-2.125-4.13-3.664-5.86zm-32.405 42.237c-.075 0-.15 0-.224-.075-3.962-.83-7.102-2.87-9.046-6.568-.3-.528-.598-1.057-1.047-1.434-.972-.906-2.243-.906-3.14-.075-.822.83-.897 2.038-.075 3.02.3.377.673.83.897 1.283 2.392 4.152 6.13 6.644 10.7 7.85.45.15.972.15 1.196.226 1.57.075 2.467-.68 2.617-1.812.15-1.208-.598-2.038-1.87-2.416z"/><ellipse cx="241" cy="249" rx="1" ry="3"/><ellipse cx="247" cy="256" rx="1" ry="3"/><ellipse cx="252" cy="248" rx="1" ry="3"/><ellipse cx="254" cy="258" rx="1" ry="3"/><ellipse cx="242" cy="262" rx="1" ry="3"/><ellipse cx="249" cy="267" rx="1" ry="3"/><ellipse cx="261" cy="252" rx="1" ry="3"/><ellipse cx="267" cy="246" rx="1" ry="3"/><ellipse cx="261" cy="263" rx="1" ry="3"/><ellipse cx="267" cy="259" rx="1" ry="3"/><ellipse cx="256" cy="271" rx="1" ry="3"/><ellipse cx="263" cy="274" rx="1" ry="3"/><ellipse cx="327" cy="241" rx="1" ry="3"/><ellipse cx="331" cy="231" rx="1" ry="3"/><ellipse cx="335" cy="242" rx="1" ry="3"/><ellipse cx="338" cy="234" rx="1" ry="3"/><ellipse cx="343" cy="245" rx="1" ry="3"/><ellipse cx="336" cy="223" rx="1" ry="3"/><ellipse cx="344" cy="237" rx="1" ry="3"/><ellipse cx="331" cy="252" rx="1" ry="3"/><ellipse cx="338" cy="254" rx="1" ry="3"/><ellipse cx="332" cy="264" rx="1" ry="3"/><ellipse cx="338" cy="268" rx="1" ry="3"/><ellipse cx="251" cy="277" rx="1" ry="3"/><ellipse cx="259" cy="283" rx="1" ry="3"/><ellipse cx="268" cy="281" rx="1" ry="3"/><ellipse cx="271" cy="269" rx="1" ry="3"/><ellipse cx="268" cy="291" rx="1" ry="3"/><ellipse cx="275" cy="298" rx="1" ry="3"/></g><ellipse fill="#fff" cx="316" cy="260" rx="8" ry="10"/><g fill="#000"><ellipse cx="318" cy="260.5" rx="3" ry="4.5"/><path d="M351.716 237.71c-1.268-6.294-3.506-12.138-7.3-17.383-1.865-2.547-3.953-4.87-6.713-6.52l-2.91-1.798c.224-.375.448-.6.597-.824 4.4-5.62 6.788-12.138 8.503-18.956.15-.674.224-1.35 0-2.023-.522-2.023-2.387-2.772-4.177-1.648-.597.375-1.044.974-1.566 1.5-1.193 1.35-2.46 2.697-3.804 3.97-4.252 3.896-9.174 6.07-14.918 6.37-.895.075-.97 0-.82-.9.15-1.124.224-2.323.15-3.447-.15-2.473-.895-4.795-2.61-6.668-1.865-2.098-4.252-2.847-7.01-2.098-2.834.824-5.445 2.173-7.46 4.346-3.88 4.27-7.683 8.617-9.846 14.16-.97-.375-2.014-.75-3.058-1.274a10.55 10.55 0 0 0-2.984-.899c-2.536-.375-5.072-.524-7.608-.6-2.685-.075-5.37.225-7.98.974-4.923 1.424-9.846 2.622-14.768 3.82-2.91.75-10.666 1.274-11.04 1.274-1.268 0-2.536.075-3.804 0s-2.536-.3-3.58-1.05c-.895-.674-2.088-.524-2.834.225-.746.824-.746 1.873-.075 2.847.298.45.67.9 1.044 1.35a31.44 31.44 0 0 0 11.934 10.19c.448.225.895.45 1.417.674-.15.15-.298.225-.373.3-4.774 2.323-8.652 5.77-11.934 9.9-4.252 5.245-7.384 11.09-7.98 17.982-.522 5.47-.075 10.79 2.088 15.81 2.536 5.92 5.892 11.314 9.995 16.184l6.49 7.493c3.804 4.346 7.757 8.542 12.01 12.438 2.984 2.697 5.818 5.545 9.174 7.867l10.815 7.268c3.88 2.473 7.98 4.496 12.456 5.545 3.058.75 6.19 1.2 9.324.674 4.55-.75 8.652-2.622 12.382-5.245l4.7-3.447c2.91-2.098 5.52-4.57 7.832-7.343 6.638-7.792 11.412-16.71 15.738-26 1.417-3.072 2.685-6.22 4.028-9.366 2.536-5.844 4.55-11.913 5.67-18.207.82-4.645 1.044-9.366 1.044-14.086.15-.974 0-2.173-.224-3.372zm-37.07-29.22c5.22.15 10.144-.75 14.992-2.248.15-.075.298-.225.522-.075 0 .15-.075.3-.224.375-2.536 2.323-4.997 4.645-7.683 6.743-2.536 2.023-5.445 3.447-8.8 4.27-3.506.9-7.01 1.5-10.666 1.648-1.865.075-3.58-.15-5.22-1.05-2.76-1.5-2.685-.75-1.12-3.372 2.088-3.447 5.743-5.095 9.995-5.844 2.685-.524 5.445-.524 8.205-.45zm-7.3-15.66c6.49-3.147 5.37 1.873 4.252 5.844s-13.426 9.366-17.155 10.34c2.61-10.415 12.904-16.184 12.904-16.184zM286.452 221c.448-1.274 1.12-2.398 1.865-3.522.448-.674.522-.674 1.193-.225.373.225.82.524 1.12.824l4.997 4.87c4.102 4.12 7.906 8.467 13.053 11.838.075.075.075.15.224.225-1.044.75-2.312.9-3.655.75-1.566-.15-3.058-.45-4.55-.824-.895-.225-1.716-.375-2.61-.45-2.685-.15-4.624.75-5.892 2.772-.82 1.35-1.343 2.847-1.8 4.346-.298 1.124-1.193 1.873-2.088 2.697-1.268-2.098-1.94-4.27-2.387-6.52-.522-2.547-1.12-5.095-1.044-7.717.224-2.997.522-6.07 1.566-9.066zm-1.193-6.22c.298.375.075.674-.075.9-.97 2.023-2.088 3.97-3.58 5.694l-4.997 5.77c-.597.674-1.268 1.124-2.163 1.573-4.7 2.323-9.696 2.997-14.918 2.772-.373 0-.746 0-1.12-.225.075-.15.075-.3.15-.375 2.685-3.147 5.296-6.444 8.28-9.366 1.716-1.648 3.58-2.922 5.892-3.746 3.58-1.35 7.235-2.398 11.04-2.922.522 0 1.044 0 1.492-.075zm-40.95-1.35s7.832-1.05 20.363-3.896c9.92-2.248 19.095 2.023 19.095 2.023-3.133.15-17.976 5.02-22.6 8.84-4.624 3.896-8.578-.225-8.578-.225l-8.28-6.743zm103.454 32.143c-.224 6.52-1.417 12.887-3.506 19.106-.597 1.798-1.268 3.522-2.014 5.245-1.716 4.046-3.282 8.167-5.147 12.063-4.177 8.69-8.652 17.158-15.067 24.426-2.014 2.323-4.177 4.346-6.638 6.144-1.8 1.274-3.506 2.622-5.296 3.896-2.46 1.723-5.22 2.922-8.056 3.746-2.76.824-5.594.674-8.354.15-4.55-.824-8.652-2.772-12.53-5.32-3.58-2.248-7.01-4.645-10.517-7.043-.746-.524-1.492-1.05-2.163-1.648-6.788-5.77-13.202-11.988-18.945-18.806-1.865-2.248-3.804-4.346-5.67-6.593-3.953-4.645-7.16-9.74-9.473-15.435-1.865-4.496-2.163-9.216-1.716-14.01.67-6.144 3.58-11.164 7.384-15.81 2.088-2.547 4.475-4.72 7.235-6.593 1.8-1.274 3.73-2.173 5.967-2.697-.15 1.648-1.492 4.196-2.61 5.17-1.044.9-2.238 1.648-3.506 2.173-.298.15-.67.3-.97.524-.746.524-1.193 1.2-1.044 2.098.15.974.67 1.573 1.566 1.873.373.15.746.15 1.193.225l6.638.375 9.622.45c4.028.225 7.608-.974 11.04-2.922.373-.225.67-.524 1.193-.6.448.524.448 1.2.597 1.798.522 3.522 1.716 6.668 3.73 9.59 1.193 1.723 2.088 3.596 3.43 5.17.224.3.298.524 0 .824-2.088 1.873-3.207 4.346-4.028 6.968-.82 2.697-1.268 5.545-1.343 8.392-.075 1.798.298 3.522.82 5.17 1.492 4.645 5.967 7.942 11.04 7.942 4.923 0 8.8-2.248 11.188-6.52 2.163-3.896 2.685-8.092 1.417-12.513-.895-3.072-2.46-5.47-4.7-7.642-1.566-1.5-3.43-2.547-5.67-2.697-.224 0-.373-.075-.597-.075-.373 0-.522-.225-.448-.524.522-3.297.895-6.668 3.207-9.366.522-.6 1.044-.974 1.8-1.124.97-.15 1.865-.225 2.834-.075 2.685.45 5.445.524 8.205.375 3.58-.225 6.788-1.5 9.324-4.27.746-.824 1.193-1.648.746-2.697-.373-.974-1.268-1.424-2.238-1.424-1.044 0-1.94-.45-2.76-1.05-1.94-1.424-3.506-3.072-4.7-5.245.373-.15.746-.15 1.12-.075 3.356.3 6.564-.45 9.622-1.873 4.4-2.098 8.428-4.72 11.934-8.242.82-.824 2.014-1.05 3.133-.45 2.91 1.573 5.296 3.746 7.235 6.444 3.356 4.645 5.37 9.815 6.564 15.36.15 2.697 0 5.17-.075 7.642z"/></g><path d="M261.1 220.35c4.688-3.84 19.735-8.638 22.9-8.712 0 0-9.3-4.208-19.357-1.993-12.703 2.806-20.643 3.84-20.643 3.84l8.47 6.645c-.076 0 3.932 4.06 8.62.22zm51.053-21.585c1.118-3.93 2.236-8.9-4.248-5.785 0 0-10.286 5.7-12.894 16.02 3.727-.964 16.025-6.23 17.143-10.235zm-44.713 22.088c-3.058 2.97-5.594 6.32-8.28 9.518-.075.076-.075.228-.15.38.373.228.746.228 1.12.228 5.22.152 10.22-.533 14.918-2.817.82-.38 1.566-.914 2.163-1.6l4.998-5.863c1.492-1.75 2.6-3.73 3.58-5.787.15-.305.373-.533.075-.914-.448.076-.97.076-1.492.152-3.804.533-7.46 1.6-11.04 2.97-2.387.838-4.252 2.132-5.893 3.73zm18.62 16.715c.447 2.218 1.118 4.362 2.385 6.432.97-.813 1.788-1.553 2.086-2.662.373-1.48.894-2.957 1.788-4.288 1.192-1.996 3.13-2.883 5.887-2.736.894.074 1.788.222 2.608.444 1.5.37 2.98.665 4.546.813 1.34.148 2.534 0 3.65-.74-.075-.148-.15-.222-.224-.222-5.142-3.327-8.942-7.615-13.04-11.682-1.64-1.627-3.28-3.18-4.993-4.806-.298-.296-.745-.6-1.118-.813-.745-.444-.82-.444-1.192.222-.745 1.1-1.416 2.292-1.863 3.475-1.043 2.957-1.416 6-1.565 9.02-.075 2.514.596 5.028 1.043 7.54zm11.067-22.954c-1.574 2.602-1.724 1.933 1.124 3.346 1.65.818 3.373 1.04 5.247 1.04 3.673-.15 7.196-.743 10.72-1.636 3.298-.818 6.222-2.23 8.846-4.238 2.7-2.156 5.247-4.386 7.72-6.7.15-.074.225-.223.225-.372-.225-.15-.375 0-.525.074-4.873 1.487-9.82 2.38-15.068 2.23-2.774-.074-5.547-.074-8.246.446-4.273.743-7.946 2.38-10.045 5.8z" fill="#009245"/><ellipse fill="#fff" cx="291.5" cy="267" rx="8.5" ry="11"/><ellipse fill="#000" cx="294" cy="266.5" rx="3" ry="4.5"/><g transform="matrix(.990268 .139173 -.139173 .990268 369.147933 179.87781)"><path d="M47.23 43.016c-.168-1.163-.168-2.326 0-3.5.168-1.496.335-2.99.782-4.43.335-1.108.95-2.105 1.787-2.936.39-.443.894-.554 1.508-.388.558.166.894.61 1.005 1.163.056.277.056.554.056.83-.056 1.052.112 2.05.39 3.046l.67 2.66.447 1.883 2.066-2.825 2.625-3.323c2.178-2.714 3.295-5.927 3.853-9.36.447-2.825.39-5.65.28-8.475-.056-1.33-.223-2.66-.838-3.877-.95-1.994-2.234-3.766-4.077-5.04-1.173-.83-2.4-1.606-3.574-2.382-.056-.055-.168-.055-.28-.055.168 1.274.056 2.548-.056 3.822-.112 2.382-.67 4.653-1.9 6.757-1.06 1.883-2.3 3.71-3.798 5.317-.614.665-1.284 1.33-1.9 2.05-.838.942-1.675 1.883-2.346 2.936-.614.997-1.06 2.05-1.117 3.213-.28 4.708.894 8.918 3.965 12.573.056.11.168.332.447.332z" fill="#006837"/><path d="M36.563 38.247c-.27-1.06-5.394-12.522-5.718-13-1.133.7-2.266 1.38-3.506 1.963-.917.478-1.888.902-2.805 1.38-.324.16-.7.318-.97.637 3.668 4.033 8.037 6.898 13 9.02z" fill="#a67c52"/><path d="M23.406 31.956c2.553 2.68 5.542 4.77 8.747 6.647 1.684.965 3.477 1.715 5.16 2.573.49.214.924.482 1.413.697.76.322 1.358.16 1.847-.482.11-.214.272-.322.49-.482.652-.536.76-1.286.163-1.93a2.38 2.38 0 0 1-.435-.59c-.706-1.394-1.358-2.787-2-4.235L34.49 24.29c-.217-.536-.49-1.018-.76-1.5s-.76-.804-1.413-.75c-.49 0-.87.268-1.304.536-1.52 1.018-3.15 1.93-4.78 2.734-.815.43-1.684.804-2.5 1.233-.598.322-1.195.75-1.576 1.34-.76 1.018-.706 1.876.11 2.84.272.43.706.804 1.14 1.233zm2-3.377c.924-.482 1.9-.91 2.825-1.394 1.195-.6 2.336-1.286 3.53-1.983.38.43 5.487 12.06 5.76 13.133-4.998-2.144-9.4-5.04-13.04-9.06.217-.375.598-.536.924-.697z" fill="#000"/><path d="M105.294 57.994c-.335-3.336-1.228-6.506-2.51-9.564-1.618-3.837-4.185-6.84-7.42-9.286-2.288-1.724-4.743-3.114-7.533-3.892-1.172-.334-2.344-.5-3.515-.667-1.953-.278-3.906-.5-5.86 0-1.73.39-3.46.9-5.078 1.557-2.288.9-4.408 2.002-6.194 3.67s-3.348 3.448-4.743 5.45c-1.172 1.724-2.288 3.503-3.74 5.005-.223.222-.39.5-.614.723-.112.167-.223.334-.223.556 0 .9-.558 1.335-1.34 1.557-.446.11-.837.334-1.228.612-.558.445-1.172.9-1.84 1.112-2.51.9-4.9.723-7.198-.667-.725-.445-1.34-.945-1.953-1.5-2.065-1.835-4.408-3.225-6.863-4.393-2.288-1.057-4.575-2.002-7.03-2.558-2.8-.612-5.636-.612-8.48-.278-2.455.278-4.854.945-7.142 1.946-4.24 1.946-7.254 5.06-8.984 9.397-1.228 3.003-1.897 6.117-1.897 9.397 0 3.503.39 6.895.95 10.343 1.004 6.45 2.846 12.678 5.3 18.683 1.786 4.337 4.018 8.452 6.25 12.567 2.176 4.004 4.687 7.785 7.477 11.4 1.73 2.224 3.683 4.226 5.803 6.06 3.515 3.003 7.477 5.005 11.997 5.783 1.004.167 2.065.278 3.07.278 1.395.056 2.678-.445 3.794-1.335 2.51-1.89 5.357-2.67 8.48-2.613 1.786.056 3.57.334 5.357.834.95.278 1.953.556 2.957.667 2.623.334 5.19.11 7.812-.222 2.734-.334 5.19-1.5 7.42-3.114 2.846-2.057 5.468-4.393 7.7-7.062 1.283-1.557 2.51-3.17 3.683-4.893 1.228-1.78 2.288-3.67 3.125-5.672 1.618-3.78 3.18-7.618 4.687-11.5.893-2.224 1.786-4.448 2.455-6.728 1.004-3.392 1.618-6.84 2.288-10.287.558-2.78 1.004-5.56 1.172-8.396l.223-4.17v-1.613c0-2.335-.39-4.726-.614-7.173zm-46.146 5.56c.67-2.002 1.786-3.614 3.404-4.95.614-.445 1.228-.834 2.01-.945.167-.056.335-.056.502-.167 1.228-.945 2.623-.9 4.073-.556.95.222 1.786.723 2.51 1.335 1.953 1.557 3.18 3.614 3.74 6.06.167.778.335 1.557.28 2.447 0 2.224-.725 4.226-2.232 6.005-1.228 1.446-2.567 2.836-4.24 3.837-2.846 1.668-6.584.834-8.593-1.335-1.507-1.668-2.4-3.67-2.4-5.95.056-1.946.335-3.892.95-5.783zm-26.393 4.838c.167-1.4.39-2.725.837-4.06.502-1.4 1.283-2.558 2.455-3.503.78-.612 1.618-1.057 2.623-1 .335 0 .614-.167.893-.278 1.507-.612 3.013-1 4.687-.667 1.228.278 2.4.723 3.404 1.446 3.57 2.558 5.412 6.06 5.69 10.454.056 1.112-.112 2.17-.335 3.28-.39 1.668-1.172 3.114-2.455 4.282-1.84 1.724-4.018 2.836-6.528 3.28-.502.11-.95.11-1.562.11-3.85-.167-6.696-2.113-8.426-5.616-1.228-2.39-1.562-5.005-1.283-7.73zm64.95 17.905c-.725 1.112-1.786 1.835-3.013 2.335-3.627 1.557-7.142 1.223-10.602-.39-.223-.11-.39-.222-.614-.334-.28.334-.446.723-.614 1.112-1.953 4.56-4.743 8.508-7.756 12.4-2.734 3.503-5.747 6.784-8.928 9.953-1.45 1.446-3.125 2.725-4.854 3.78-1.507.9-3.125 1.335-4.854 1.28-1.562-.056-3.07-.278-4.575-.723-4.13-1.168-7.533-3.503-10.658-6.34-2.623-2.447-5.078-4.95-7.42-7.674-.837-.945-1.618-1.89-2.51-2.725a3.57 3.57 0 0 1-.558-.723l-1.06-1.89c-.167-.334-.335-.39-.67-.222-.95.445-1.953.723-2.902 1-1.283.39-2.567.334-3.85.11-.558-.11-1.172-.167-1.73-.278-2.4-.39-4.408-1.5-6.138-3.17-1.004-1-1.507-2.28-1.84-3.614-1.562-6.34 2.8-11.844 7.923-12.956 1.897-.445 3.794-.667 5.747-.167a6.61 6.61 0 0 1 3.013 1.613c.502.445.95.9 1.34 1.4 1.73 2.28 2.8 4.838 3.348 7.618.112.445.056.945-.056 1.4-.335 2.057-1.004 3.948-2.51 5.45-.056.056-.112.167-.223.278 1.004.278 1.674 1.057 2.455 1.668l3.18 2.447c2.01 1.613 4.296 2.39 6.807 2.725 3.627.5 7.198.334 10.77-.11 2.957-.334 5.915-.834 8.76-1.78 3.683-1.223 7.086-2.89 10.267-5.06 2.567-1.724 4.743-3.948 6.305-6.673.335-.556.837-.9 1.283-1.335.446-.5.446-.5.056-1-1.06-1.335-1.507-2.836-1.618-4.504a18.8 18.8 0 0 1 .893-6.784c.558-1.835 1.562-3.28 3.236-4.226.28-.167.502-.39.725-.612.725-.723 1.562-1.057 2.567-1.112a8.73 8.73 0 0 1 2.399.167c2.623.5 5.078 1.446 7.254 3.114 1.897 1.446 3.07 3.392 3.404 5.727.39 3.225-.335 6.172-2.176 8.84z" fill="#ed1c24"/><path d="M107.913 63.094l-.667-6.7c-.445-4.244-1.945-8.153-3.834-11.95a12.22 12.22 0 0 0-1.389-2.066c-1-1.284-2.112-2.57-3.28-3.686-2.778-2.68-6-4.635-9.558-5.92-2.334-.894-4.834-1.117-7.335-1.34-1.167-.112-2.334-.112-3.556.112-2.334.447-4.668 1.117-6.835 2-3.334 1.396-6.224 3.35-8.613 6.087-1.778 2.066-3.334 4.244-4.9 6.478-.9 1.34-2.056 2.457-3.056 3.686-.222.223-.5.4-.722.558-.834.67-1.834 1.06-2.556 1.843-.167.168-.4.168-.556.223-1.445.28-2.834 0-4-.894-.5-.335-1-.726-1.445-1.173-3.945-3.462-8.613-5.64-13.56-7.092-3.223-.95-6.502-1.117-9.836-.782-4.112.4-7.946 1.564-11.447 3.742C7.834 48.07 5.6 50.528 4 53.6 1.72 58.067.72 62.814.943 67.785c.1 3.295.5 6.6 1.056 9.83 1.056 6.366 2.9 12.454 5.223 18.43 1.834 4.58 4.168 8.88 6.502 13.235 2.278 4.244 4.9 8.2 7.835 12.007 1.5 1.955 3.223 3.742 5.057 5.417 4.5 4.133 9.67 6.813 15.782 7.54 2.778.335 5.28 0 7.557-1.843 1.778-1.396 3.9-1.955 6.113-1.955 1.834 0 3.612.28 5.4.782.778.223 1.556.447 2.4.558 3.334.558 6.613.28 9.9-.28 2.9-.503 5.5-1.73 7.835-3.462 2.9-2.122 5.557-4.468 7.9-7.204 1.556-1.843 2.945-3.742 4.334-5.752 1.167-1.73 2.167-3.574 3-5.473 1.667-3.853 3.223-7.763 4.723-11.672 1.167-2.904 2.278-5.864 3.056-8.935.778-3.127 1.4-6.3 2-9.438.5-2.625.9-5.305 1.1-7.986.1-1.9.1-3.797.222-5.696v-2.792zm-2.723 3.742c-.1 1.396-.167 2.792-.222 4.188-.167 2.848-.6 5.64-1.167 8.433-.667 3.462-1.334 6.925-2.278 10.33-.667 2.3-1.556 4.523-2.445 6.757l-4.668 11.56c-.834 2-1.9 3.9-3.112 5.696-1.167 1.675-2.334 3.295-3.668 4.914-2.223 2.736-4.834 5.026-7.668 7.092-2.223 1.62-4.668 2.736-7.4 3.127-2.556.335-5.168.558-7.78.223-1-.112-1.945-.4-2.945-.67a21.28 21.28 0 0 0-5.335-.838c-3.112-.056-5.946.726-8.446 2.625-1.1.838-2.4 1.34-3.78 1.34-1-.056-2.056-.112-3.056-.28-4.557-.838-8.502-2.848-11.947-5.808-2.112-1.843-4.057-3.853-5.78-6.087-2.778-3.63-5.28-7.427-7.446-11.448-2.223-4.133-4.5-8.265-6.224-12.62-2.445-6.087-4.28-12.286-5.28-18.764C4 73.146 3.6 69.683 3.6 66.22c0-3.295.667-6.366 1.9-9.438 1.723-4.356 4.723-7.483 8.947-9.438 2.278-1.06 4.612-1.675 7.113-1.955 2.834-.335 5.668-.28 8.446.28 2.445.503 4.723 1.508 7.002 2.57 2.5 1.173 4.78 2.57 6.835 4.412a16.59 16.59 0 0 0 1.945 1.508c2.278 1.396 4.668 1.564 7.168.67.667-.223 1.278-.67 1.834-1.117.4-.28.778-.503 1.223-.614.778-.168 1.334-.614 1.334-1.564 0-.223.1-.4.222-.558.222-.223.4-.503.6-.726 1.5-1.508 2.556-3.295 3.723-5.026 1.4-2 2.945-3.853 4.723-5.473 1.778-1.675 3.945-2.792 6.168-3.686 1.667-.67 3.334-1.117 5.057-1.564 1.945-.447 3.9-.223 5.835 0 1.167.168 2.334.335 3.5.67 2.778.782 5.223 2.178 7.502 3.9 3.223 2.457 5.835 5.473 7.4 9.326 1.278 3.127 2.112 6.255 2.5 9.605.278 2.457.6 4.86.556 7.316.056.447.056.95.056 1.508zM42.832 42.97c1.122 2.122 2.805 3.842 4.712 5.332.673.573 1.346 1.147 2.244 1.376.224.057.224.287.337.4.45.745 1.963 1.147 2.693.803.28-.172.505-.344.617-.688.056-.172.168-.344.168-.516a5.27 5.27 0 0 1 1.178-2.122l3.14-4.014c.785-1.032 1.515-2.064 2.132-3.2l2.75-5.16c1.178-2.35 2.244-4.702 2.693-7.34.337-2.007.393-4.07.393-6.078.056-1.376.056-2.752-.224-4.128l-.84-4.128C63.7 8.336 60.895 4.552 56.24 2.2c-.785-.4-1.627-.745-2.356-1.204-2.638-1.546-6.228-.974-5.78-.343.112.172.28.344.505.516.28.23.505.46.84.63.56.287.84.745 1.066 1.32.112.344.224.745.337 1.147.393 1.663.28 3.326.224 4.988-.112 2.35-.785 4.53-1.963 6.537-1.234 2.18-2.805 4.07-4.488 5.848-1.178 1.26-2.3 2.58-3.197 4.07a9.99 9.99 0 0 0-1.346 3.612c-.28 1.835-.168 3.67.056 5.447.28 2.924 1.3 5.62 2.693 8.2zm-.112-12.614c.056-1.204.505-2.35 1.122-3.326.673-1.1 1.515-2.064 2.356-3.04.617-.688 1.3-1.376 1.907-2.122 1.515-1.663 2.693-3.555 3.815-5.504 1.178-2.18 1.74-4.53 1.907-6.995.056-1.32.168-2.638.056-3.956.112 0 .224 0 .28.057l3.6 2.466c1.85 1.376 3.085 3.2 4.095 5.218.617 1.26.73 2.638.84 4.014.168 2.924.168 5.906-.28 8.773-.56 3.555-1.627 6.823-3.87 9.7l-2.637 3.44c-.673.86-1.346 1.835-2.076 2.924-.168-.803-.28-1.376-.45-1.95-.224-.917-.393-1.835-.673-2.752-.28-1.032-.393-2.064-.393-3.154 0-.287 0-.573-.056-.86-.112-.573-.393-1.032-1-1.204-.56-.172-1.066 0-1.515.4-.84.86-1.46 1.835-1.795 3.04-.45 1.5-.56 3.04-.785 4.587-.168 1.204-.168 2.408 0 3.612-.337 0-.393-.23-.505-.4-3.03-3.727-4.263-8.142-3.927-12.958zM95.857 72.47c-2.103-1.634-4.538-2.56-7.194-3.05-.775-.163-1.55-.163-2.38-.163-.996.054-1.826.436-2.546 1.1-.22.218-.443.436-.72.6-1.66.926-2.656 2.396-3.2 4.14-.664 2.178-.996 4.356-.885 6.644.1 1.634.6 3.104 1.605 4.4.387.5.387.5-.055.98-.387.436-.94.762-1.273 1.307-1.55 2.668-3.708 4.847-6.254 6.535-3.154 2.124-6.586 3.757-10.183 4.955-2.822.926-5.755 1.416-8.7 1.743-3.597.38-7.14.545-10.68.1-2.5-.327-4.76-1.1-6.752-2.668l-3.154-2.396c-.775-.6-1.384-1.307-2.435-1.634.1-.163.166-.218.22-.272 1.494-1.47 2.158-3.322 2.5-5.337.055-.436.1-.87.055-1.36-.553-2.723-1.605-5.228-3.32-7.46-.387-.5-.83-.926-1.328-1.36-.885-.762-1.882-1.252-2.988-1.58-1.937-.5-3.82-.218-5.7.163-5.1 1.1-9.408 6.48-7.858 12.688.332 1.307.775 2.56 1.826 3.54 1.716 1.634 3.708 2.723 6.088 3.104.553.1 1.162.163 1.716.272 1.273.218 2.546.272 3.82-.1.996-.272 1.992-.545 2.878-.98.332-.163.498-.1.664.218.332.653.72 1.252 1.05 1.852.166.272.332.545.553.708.885.817 1.716 1.743 2.5 2.668 2.324 2.614 4.76 5.12 7.36 7.515 3.044 2.832 6.475 5.064 10.57 6.208 1.494.436 2.988.653 4.538.708 1.716.054 3.32-.38 4.815-1.252 1.77-1.035 3.376-2.233 4.815-3.703 3.1-3.104 6.088-6.317 8.855-9.748 2.988-3.757 5.8-7.678 7.692-12.144.166-.38.332-.762.6-1.1.22.1.443.218.6.327 3.43 1.58 6.973 1.906 10.515.38a6.86 6.86 0 0 0 2.988-2.287c1.826-2.614 2.546-5.5 2.103-8.658-.277-2.287-1.44-4.193-3.32-5.6zM23.36 95.833c-4.76 0-8.578-3.757-8.578-8.44s3.82-8.44 8.578-8.44 8.578 3.757 8.578 8.44c0 4.63-3.874 8.44-8.578 8.44zm65.856-7.678c-4.76 0-8.578-3.757-8.578-8.44s3.82-8.44 8.578-8.44 8.578 3.757 8.578 8.44-3.874 8.44-8.578 8.44zM41.6 82.948l1.5-.116c2.427-.464 4.53-1.682 6.3-3.422 1.24-1.218 1.995-2.726 2.373-4.466.216-1.102.378-2.204.324-3.422-.27-4.582-2.05-8.236-5.5-10.904-.97-.754-2.103-1.218-3.3-1.508-1.564-.406-3.074 0-4.53.696-.27.116-.54.3-.863.3-.97-.058-1.78.406-2.535 1.044-1.133.986-1.888 2.204-2.373 3.654-.485 1.392-.7 2.784-.8 4.234-.27 2.842.054 5.5 1.186 8.062 1.672 3.654 4.422 5.684 8.197 5.858zm2.157-16.646c.647-.986 1.726-1.102 2.6-.232.54.522.863 1.45.863 2.262a2.8 2.8 0 0 1-.27 1.16c-.378.754-.97 1.218-1.78 1.218-.863-.058-1.456-.522-1.726-1.392-.43-.986-.324-2.03.324-3.016zM67.56 76.83c1.64-.962 2.95-2.244 4.152-3.687 1.42-1.7 2.13-3.634 2.185-5.77.055-.855-.1-1.603-.273-2.35a10.86 10.86 0 0 0-3.66-5.824c-.7-.588-1.53-1.015-2.458-1.282-1.42-.374-2.73-.374-3.988.534-.164.107-.328.16-.492.16-.765.107-1.366.48-1.967.908-1.584 1.23-2.73 2.832-3.332 4.756-.6 1.817-.82 3.687-.82 5.557 0 2.2.874 4.114 2.35 5.718 1.857 2.084 5.517 2.885 8.303 1.282zm-.656-13.252c.765-.802 1.967-.64 2.568.32.164.32.328.588.437.908.164.32.164.695-.055 1.015-.328.534-.765 1.015-1.3 1.282-1.147.48-2.404-.427-2.404-1.763.1-.64.273-1.282.765-1.763z" fill="#000"/><g fill="#f7931e"><ellipse cx="23.523" cy="86.544" rx="8.52" ry="8.424"/><ellipse cx="88.933" cy="78.881" rx="8.52" ry="8.424"/></g><path d="M45.704 70.4c.807.055 1.4-.388 1.776-1.164.16-.388.27-.776.27-1.1a3.26 3.26 0 0 0-.86-2.162c-.807-.832-1.884-.72-2.583.222-.592.887-.7 1.885-.377 2.938.323.776.97 1.22 1.776 1.275zm23.38-3.325c.622-.256 1.018-.718 1.357-1.23.226-.308.17-.615.057-.974-.113-.308-.283-.615-.452-.87-.565-.923-1.8-1.076-2.657-.308-.5.46-.678 1.076-.792 1.64 0 1.333 1.3 2.204 2.488 1.743zm-25.937 4.14c-.462-2.5-2.312-4.186-4.212-3.904s-3.03 2.546-2.62 5.035c.462 2.5 2.312 4.186 4.212 3.904 1.9-.34 3.03-2.546 2.62-5.035zM66.92 67.86c-.363-1.897-1.97-3.224-3.575-2.94s-2.643 2.086-2.28 3.983 1.97 3.224 3.575 2.94 2.643-2.086 2.28-3.983z" fill="#fff"/></g><path d="M94.93 306.153h61.217l-36.404-100.02c-4.136-11.363-14.937-18.925-27.028-18.925H28.762C12.877 187.208 0 200.085 0 215.97s12.877 28.762 28.762 28.762h43.814l22.355 61.42z" fill="#59636f"/><path fill="#455060" d="M94.93 306.153h61.217L144.9 275.248H83.683z"/><path d="M483.238 516.653h-311.69l-76.616-210.5h375.222c19.467 0 34.61 16.922 32.46 36.27l-19.374 174.23z" fill="#a2ddfd"/><path d="M150.122 457.8l21.424 58.863h311.69l6.594-59.295a59.85 59.85 0 0 0-6.594-.373H159.845c-3.31 0-6.557.284-9.723.805z" fill="#7acefa"/><circle fill="#59636f" transform="matrix(.707107 -.707107 .707107 .707107 -350.35311 316.800846)" cx="207.236" cy="581.314" r="39.449"/><circle fill="#f6ee86" transform="matrix(.973181 -.230043 .230043 .973181 -128.134716 63.288215)" cx="207.359" cy="581.179" r="7.662"/><circle fill="#59636f" transform="matrix(.707107 -.707107 .707107 .707107 -290.445959 461.473549)" cx="411.825" cy="581.336" r="39.449"/><circle fill="#f6ee86" transform="matrix(.973181 -.230043 .230043 .973181 -122.63712 110.344531)" cx="411.919" cy="581.129" r="7.662"/><path d="M483.238 545.415H159.845c-15.885 0-28.762-12.877-28.762-28.762s12.877-28.762 28.762-28.762h323.393c15.885 0 28.762 12.877 28.762 28.762s-12.877 28.762-28.762 28.762z" fill="#b0ade2"/><path d="M262.592 406.675c.007 13.843-14.08 25.072-31.463 25.08s-31.48-11.206-31.488-25.05 14.08-25.073 31.463-25.082 31.48 11.206 31.488 25.05h0zm107.656-.055c.007 13.843 14.105 25.058 31.488 25.05s31.47-11.238 31.463-25.08-14.105-25.06-31.488-25.05-31.47 11.238-31.463 25.082h0z" fill="#fff"/><path d="M347.267 395.3c-.01-19.068-13.824-20.852-30.864-20.844s-30.852 1.807-30.843 20.875 13.83 34.518 30.87 34.5 30.846-15.472 30.836-34.54h0zm36.833-9.862c-4.157-.008-7.508-3.372-7.5-7.515l.023-12.362a7.5 7.5 0 0 1 7.5-7.485h.015a7.5 7.5 0 0 1 7.485 7.515l-.023 12.362c-.008 4.136-3.365 7.485-7.5 7.485zm-114.94-1.132c-4.16-.01-7.5-3.374-7.5-7.517a6.94 6.94 0 0 0-6.972-7.003 7 7 0 0 0-7.002 6.973 7.5 7.5 0 0 1-7.5 7.483c-4.16-.01-7.5-3.374-7.5-7.517.026-12.107 9.886-21.94 21.987-21.94h.047c5.874.013 11.4 2.313 15.535 6.475a21.84 21.84 0 0 1 6.405 15.562c-.01 4.135-3.365 7.483-7.5 7.483h0z" fill="#4e5660"/></svg>